<svg width="100%" height="100%" viewBox="0 0 95 37" fill="none" xmlns="http://www.w3.org/2000/svg" preserveAspectRatio="none"><g clip-path="url(#clip0_0_13)"><path d="M38.4502 23.3764C38.2634 23.3764 38.0019 23.3951 38.0019 23.6473C38.0019 23.9274 38.1046 24.8614 38.4782 24.8614C38.5342 24.8614 38.5622 24.8147 38.5622 24.768C38.5622 24.6653 38.3848 24.4878 38.3848 24.2356C38.3848 23.9741 38.5622 23.7313 38.5622 23.4605C38.5249 23.4044 38.4968 23.3764 38.4502 23.3764Z" fill="white" data-color-group="0"/><path d="M40.7009 26.337L40.6823 26.2997L40.5982 26.337C40.3741 26.4491 40.1779 26.6172 39.9725 26.7293C39.6829 26.888 39.3561 26.9347 39.0479 27.0281C39.1039 26.8413 39.1506 26.6545 39.1506 26.4584C39.1506 26.309 39.1039 26.1689 39.1039 26.0195C39.1039 25.786 39.216 25.5805 39.3281 25.3844C39.5896 25.2443 40.0565 24.9641 40.0565 24.6186C40.0565 24.4878 39.8511 24.4318 39.7483 24.4318C39.4588 24.4318 39.2814 24.9081 39.1786 25.1136C38.749 25.347 38.4688 25.786 38.0953 26.0848C38.0112 26.1596 37.9178 26.2249 37.8244 26.2903C37.5909 26.4024 37.4041 26.5798 37.1146 26.5798C37.0306 26.5798 36.9745 26.5238 36.9559 26.4491C36.9652 26.0475 37.9552 25.3657 37.9552 25.1976C37.9552 25.1416 37.8991 25.0949 37.8431 25.0949C37.703 25.0949 37.5069 25.3657 37.3948 25.4498C37.0399 25.7393 36.5823 25.9167 36.1807 26.1315C36.0873 26.1782 35.7417 26.4024 35.583 26.4678C35.5456 26.4864 35.4989 26.5238 35.5176 26.5518C35.5363 26.5892 35.583 26.5985 35.6297 26.5985C35.667 26.5985 36.5543 26.1596 36.7037 26.1035C36.601 26.309 36.5169 26.5331 36.5169 26.7666C36.5169 26.8507 36.601 27.0001 36.6943 27.0001C36.8251 27.0001 37.2267 26.832 37.5536 26.6452C37.8898 26.5612 38.5529 25.9634 38.8984 25.8327C38.8984 26.0288 38.9358 26.2249 38.9358 26.4211C38.9358 26.6639 38.8704 26.9067 38.749 27.1309C38.4035 27.2616 37.3294 27.7473 37.3294 28.1582C37.3294 28.2516 37.3668 28.2889 37.4602 28.2889C38.2447 28.2889 38.5155 28.0835 38.8984 27.411C39.0852 27.355 39.2814 27.3176 39.4681 27.2523C39.6082 27.2056 40.4301 26.6545 40.6729 26.4211C40.6729 26.3837 40.7009 26.3463 40.7009 26.337Z" fill="white" data-color-group="0"/><path d="M46.2112 23.3764C46.0244 23.3764 45.7629 23.3951 45.7629 23.6473C45.7629 23.9274 45.8656 24.8614 46.2392 24.8614C46.2952 24.8614 46.3232 24.8147 46.3232 24.768C46.3232 24.6653 46.1458 24.4878 46.1458 24.2356C46.1458 23.9741 46.3232 23.7313 46.3232 23.4605C46.2952 23.4044 46.2579 23.3764 46.2112 23.3764Z" fill="white" data-color-group="0"/><path d="M57.8107 26.6452C57.8293 26.6265 57.848 26.6172 57.8667 26.5985C58.343 26.4397 58.8473 25.6459 59.1649 25.6459C59.305 25.6459 59.4264 25.7766 59.4264 25.9167L59.4077 26.0008C59.2583 26.1876 58.5298 27.1495 58.5298 27.2616C58.5298 27.355 58.6232 27.4484 58.7166 27.4484C59.2022 27.4484 59.6225 27.1775 60.0708 27.0188C60.2295 26.9627 60.407 26.9721 60.5564 26.888C60.7339 26.7946 61.4156 26.4584 61.4156 26.2716L61.4063 26.2063L61.3409 26.2249C61.2382 26.2716 61.0981 26.3557 61.0141 26.4117C60.6405 26.6265 60.1828 26.888 59.7346 26.888C59.6692 26.888 59.5945 26.8974 59.5384 26.8787C59.5011 26.8693 59.5384 26.7666 59.5384 26.7666C59.5384 26.4584 60.2576 25.8607 60.2576 25.263C60.2576 25.1042 60.1081 24.9361 59.9494 24.9361C59.2302 24.9361 58.866 25.7019 58.3617 26.0942C58.2309 26.2063 58.0908 26.2903 57.9507 26.3837C57.8013 26.4491 57.5958 26.5425 57.5398 26.5798C57.1662 26.7666 56.6246 26.9067 56.223 26.9067C56.0829 26.9067 55.728 26.8133 55.728 26.6359C55.728 26.5985 55.7186 26.5425 55.7467 26.5238C55.9521 26.365 56.2323 26.2903 56.4751 26.1876C56.8207 26.0475 57.8387 25.3284 57.8387 24.9361C57.8387 24.5345 57.3997 24.4972 57.0822 24.4972C56.4564 24.4972 56.2043 24.7867 55.7653 25.1789C55.5225 25.4031 55.5412 25.7019 55.3451 25.9448C55.289 26.0195 55.0649 26.1969 54.8781 26.3463C54.766 26.3837 54.6539 26.4678 54.4952 26.5612C54.159 26.7946 53.7667 27.1028 53.4772 27.2336C53.141 27.3737 52.7861 27.411 52.4405 27.4671C52.3938 27.4858 52.3471 27.5044 52.3004 27.5044C51.9736 27.5044 51.4786 27.2896 51.4786 26.9067C51.4786 26.4584 51.8521 26.2716 51.9829 25.8887C53.4025 25.2069 55.5505 23.6846 56.6246 22.5359C57.2316 22.4705 57.8293 22.3958 58.4364 22.3024C58.81 22.2464 59.1742 22.1623 59.5478 22.1156C59.6412 22.1063 59.7626 22.0502 59.7999 21.9568C59.8466 21.8074 59.6038 21.7607 59.4544 21.7607C59.0248 21.7607 58.6232 21.9195 58.2029 21.9942C57.8107 22.0689 57.4184 22.1156 57.0261 22.1717C57.6612 21.63 58.5671 20.8922 58.7166 20.0703C58.7726 19.9769 58.8193 19.8648 58.8193 19.7434C58.8193 19.5006 58.5671 19.4352 58.371 19.4352C58.0161 19.4352 57.8013 19.4913 57.4931 19.6594C56.8954 19.9582 55.5879 20.9015 55.1303 21.3871C54.8688 21.6767 54.6353 21.9849 54.3644 22.2744C54.2897 22.3584 54.215 22.4425 54.1403 22.5172C54.0282 22.5265 53.9161 22.5359 53.8041 22.5359C53.1783 22.5639 52.5526 22.5546 51.9269 22.5826C51.9362 22.5732 51.9455 22.5546 51.9642 22.5452C52.0576 22.4425 52.1603 22.3491 52.2631 22.2557C52.8981 21.714 53.8975 20.9389 54.0469 20.0703C54.1029 19.9769 54.1496 19.8648 54.1496 19.7434C54.1496 19.5006 53.8975 19.4352 53.7013 19.4352C53.3464 19.4352 53.1316 19.4913 52.8234 19.6594C52.2257 19.9582 50.9182 20.9015 50.4606 21.3871C50.1897 21.6767 49.9656 21.9849 49.6947 22.2744C49.508 22.4799 49.3118 22.6853 49.125 22.8814C48.8449 22.9095 48.5553 22.9188 48.2752 22.9188C47.4813 22.9188 46.6875 22.7414 45.8936 22.7227C46.3793 22.3958 48.6114 21.2844 48.6114 20.7427C48.6114 20.5653 48.3125 20.5092 48.1818 20.5092C47.3226 20.5092 46.6875 21.3311 46.0524 21.8074C45.6321 22.1156 45.1838 22.3771 44.8009 22.7133C44.0071 22.6199 43.2319 22.3584 42.4194 22.3584C41.4201 22.3584 40.4394 22.2183 39.4588 22.2183H38.8891C38.254 22.2183 37.6283 22.237 37.0026 22.3678C36.8158 22.4051 36.1807 22.5172 35.7978 22.6947C35.8071 22.5546 35.8165 22.4051 35.8165 22.2557C35.8165 21.0416 34.2661 19.7434 33.0707 19.7434C32.7345 19.7434 32.3982 19.7247 32.0714 19.7808C31.6791 19.8368 31.2869 19.8181 30.9039 19.8928C30.2128 20.0329 29.2602 20.4719 28.8119 21.0416C28.5224 21.4152 28.2329 21.8728 28.2329 22.3584C28.2329 22.5639 28.2889 22.7787 28.3636 22.9748C28.8119 24.1796 29.2322 24.0956 30.3623 24.273C29.8393 24.8987 29.2976 25.4965 28.8586 26.1689C28.3356 25.9261 27.7566 25.8327 27.1775 25.8327C26.337 25.8327 24.796 26.5892 24.796 27.5605C24.796 27.9434 25.1322 28.2983 25.5245 28.2983C27.411 28.2983 27.5138 27.7659 28.8866 26.7479C29.503 27.0281 30.3062 27.5605 30.9787 27.5605C31.5577 27.5605 32.2862 27.1776 32.7812 26.8974C34.2568 26.0755 35.3682 24.852 35.695 23.255C36.0032 23.4698 36.5449 23.6566 36.7224 23.6566C36.7784 23.6566 36.8344 23.6193 36.8718 23.5726C36.8158 23.3204 36.3488 23.3391 36.3488 23.0869C36.3488 22.4612 39.1132 22.4425 39.6082 22.4425C40.2246 22.4425 40.8224 22.5826 41.4388 22.5826C42.4381 22.5826 43.4094 22.8067 44.362 23.0496C43.8296 23.6473 43.4 24.3571 42.8677 24.9548C42.6715 25.1696 42.4287 25.3564 42.2233 25.5712C41.9431 25.8514 41.5788 26.3837 41.2239 26.5892C40.757 26.8694 40.3927 27.2803 39.9725 27.6445C39.823 27.7753 39.6923 27.8967 39.6923 28.1208C39.6923 28.2609 39.795 28.317 39.9258 28.317C40.2807 28.317 41.3921 27.0748 41.7283 26.7853C42.2233 26.365 42.7089 25.9261 43.1479 25.4591C43.9137 24.6372 44.5581 23.5819 45.5574 23.0215C46.482 23.0869 47.4066 23.2457 48.3312 23.2457C48.4713 23.2457 48.6114 23.2457 48.7608 23.2363C48.079 23.9461 47.4066 24.6559 46.8929 25.4965C46.6968 25.5992 46.5941 25.8047 46.4073 25.9354C46.2205 26.0568 45.5948 26.2716 45.3146 26.4864C45.1745 26.5705 45.0251 26.6452 44.8383 26.6452C44.7542 26.6452 44.6982 26.5892 44.6795 26.5145C44.6888 26.1129 45.6788 25.4311 45.6788 25.263C45.6788 25.2069 45.6228 25.1602 45.5667 25.1602C45.4267 25.1602 45.2305 25.4311 45.1185 25.5151C44.7636 25.8047 44.3059 25.9821 43.9043 26.1969C43.8109 26.2436 43.4654 26.4678 43.3066 26.5331C43.2693 26.5518 43.2226 26.5892 43.2412 26.6172C43.2599 26.6545 43.3066 26.6639 43.3533 26.6639C43.3907 26.6639 44.2779 26.2249 44.4273 26.1689C44.3246 26.3744 44.2406 26.5985 44.2406 26.832C44.2406 26.916 44.3246 27.0655 44.418 27.0655C44.5674 27.0655 45.0624 26.8413 45.4173 26.6265C45.5014 26.5892 45.5761 26.5518 45.6601 26.5145C45.9123 26.4117 46.1738 26.309 46.4446 26.253C46.3046 26.5051 46.2392 27.0468 46.2392 27.3363C46.2392 27.822 46.9303 27.8687 47.2945 27.8687C48.49 27.8687 48.9569 27.4297 49.8722 26.7853C49.9189 26.7479 50.0216 26.6919 50.115 26.6172C50.1897 26.5798 50.2644 26.5518 50.3392 26.5145C50.5913 26.4117 50.8528 26.309 51.1237 26.253C50.9836 26.5051 50.9182 27.0468 50.9182 27.3363C50.9182 27.822 51.6093 27.8687 51.9736 27.8687C53.169 27.8687 53.636 27.4297 54.5512 26.7853C54.5886 26.7573 54.6633 26.7106 54.738 26.6545C54.9528 26.5798 55.1303 26.4024 55.2797 26.253C55.2984 26.7479 55.4758 27.2709 56.0642 27.2709C56.6059 27.2709 57.2316 27.0842 57.6799 26.7853C57.7359 26.7012 57.7826 26.6826 57.8107 26.6452ZM56.4751 25.0388C56.5779 24.9828 56.8487 24.9268 56.9701 24.9268C57.1195 24.9268 57.2783 25.0388 57.241 25.1789C57.1943 25.3097 57.0822 25.4031 56.9888 25.4871C56.7927 25.6833 56.5031 25.7393 56.279 25.9074C56.1669 26.0008 56.0549 26.0475 55.9054 26.0475C55.8587 26.0288 55.812 26.0101 55.812 25.9541C55.812 25.7113 56.2603 25.1509 56.4751 25.0388ZM25.6272 27.8033C25.4871 27.8033 25.291 27.7379 25.291 27.5698C25.291 27.4671 25.4031 27.2242 25.4684 27.1309C25.9354 26.4024 27.1215 26.3557 27.8967 26.3557C28.0835 26.3557 28.2702 26.4491 28.4384 26.5051C27.4484 27.2616 26.9814 27.8033 25.6272 27.8033ZM34.649 24.4972C34.5183 24.7306 34.3595 24.9454 34.1727 25.1416C33.8925 25.4404 33.547 25.6459 33.2108 25.8794C32.6224 26.2997 31.8005 26.9627 31.0627 26.9627C30.4276 26.9627 29.8393 26.6078 29.2789 26.337C29.8579 25.6459 30.3623 24.9174 30.932 24.217C31.2121 24.1703 31.4643 24.0582 31.7258 23.9835C32.996 23.6846 34.3408 23.2457 34.3408 21.6767C34.3408 21.4619 34.2568 21.1537 33.9859 21.1537C33.8925 21.1537 33.7525 21.2377 33.6777 21.2844C33.6964 21.219 33.7244 21.1443 33.7244 21.0789C33.7244 20.9669 33.6404 20.9202 33.5377 20.9202C33.1361 20.9202 32.9866 21.4432 32.7998 21.714C32.4916 22.1623 32.0807 22.5919 31.6885 22.9842C31.3896 23.283 30.9973 23.4605 30.7078 23.7687C29.8206 23.7687 28.6718 23.4605 28.6718 22.3678C28.6718 21.8354 28.896 21.5926 29.2135 21.2004C30.026 20.2384 31.3336 20.1357 32.5103 20.1357C32.7998 20.1357 33.9673 20.2758 34.154 20.4159C34.3408 20.5559 34.621 20.7241 34.7704 20.9015C35.2934 21.4992 35.3215 21.5459 35.3215 22.3491C35.3215 23.6659 35.2374 23.4325 34.649 24.4972ZM31.7445 23.5072C32.2208 23.1803 32.6504 22.788 33.024 22.3584C33.2108 22.1623 33.3695 21.9195 33.5657 21.7327C33.631 21.6673 33.6684 21.6393 33.7711 21.6393C33.8739 21.6393 33.9486 21.6393 33.9486 21.7701C33.9579 22.8067 32.5383 23.2457 31.7445 23.5072ZM56.2136 22.6293C55.812 23.0309 53.3651 24.9548 52.9355 24.9548C52.8795 24.9548 52.8515 24.9454 52.8328 24.8894C52.8981 24.5999 53.3745 24.0769 53.5893 23.8341C53.8041 23.5819 54.1683 23.1523 54.5979 22.6853C55.1583 22.6573 55.728 22.6106 56.2883 22.5546C56.2697 22.5826 56.2416 22.6106 56.2136 22.6293ZM57.8387 20.1543C57.9321 20.1543 58.1189 20.2384 58.1189 20.3505C58.1189 20.7147 57.2596 21.602 56.6713 22.1903C56.4845 22.209 56.2977 22.237 56.1202 22.265C55.7 22.3211 55.2797 22.3771 54.8501 22.4238C55.8494 21.3498 57.1195 20.1543 57.8387 20.1543ZM53.1597 20.1543C53.253 20.1543 53.4398 20.2384 53.4398 20.3505C53.4398 20.8174 52.0763 22.1063 51.6093 22.5639C51.5346 22.5732 51.4599 22.5732 51.3852 22.5826C50.8715 22.6293 50.3672 22.704 49.8535 22.76C50.8902 21.6206 52.3658 20.1543 53.1597 20.1543ZM48.9196 23.8341C49.0597 23.6659 49.2745 23.4231 49.5173 23.1429C50.0683 23.1056 50.61 23.0402 51.1517 22.9748C50.3298 23.6566 48.6114 24.9641 48.2658 24.9641C48.2098 24.9641 48.1818 24.9548 48.1631 24.8987C48.2378 24.5999 48.7048 24.0769 48.9196 23.8341ZM51.1143 25.8794C50.9369 25.9915 50.3578 26.1969 50.059 26.4024C49.9843 26.4397 49.9096 26.4958 49.8162 26.5518C49.4799 26.7853 49.0877 27.0935 48.7982 27.2242C48.462 27.3643 48.1071 27.4017 47.7615 27.4577C47.7148 27.4764 47.6681 27.4951 47.6214 27.4951C47.2945 27.4951 46.7995 27.2803 46.7995 26.8974C46.7995 26.4491 47.1731 26.2623 47.3132 25.8794C48.574 25.2723 50.4045 24.0115 51.5533 22.9281C52.2911 22.8441 53.0289 22.76 53.7667 22.732C53.8134 22.732 53.8694 22.732 53.9161 22.7227C53.0943 23.5819 52.2257 24.4224 51.6 25.4498C51.4039 25.5432 51.3011 25.758 51.1143 25.8794Z" fill="white" data-color-group="0"/><path d="M65.5343 26.3183L65.4689 26.3277C65.0954 26.4211 64.4976 27.0375 64.2268 27.2616C64.0026 27.4484 63.7411 27.5511 63.489 27.6912C63.2648 27.822 63.0687 27.9901 62.8726 28.1395C63.1808 27.7192 63.517 27.327 63.8719 26.9441C64.0213 26.7853 64.2175 26.5705 64.2175 26.3463C64.2175 26.2156 64.1054 25.9728 63.9466 25.9728C63.6478 25.9728 63.489 26.4117 63.0687 26.4117C62.7605 26.4117 62.4803 26.1596 62.4803 25.8607C62.4803 25.263 63.022 24.7867 63.0781 24.2637C63.0874 24.1703 63.1248 24.0022 62.9847 24.0115C62.5177 24.0302 61.9853 25.5432 61.9853 25.9448C61.9853 26.7106 62.7979 26.7853 63.3769 26.7853C63.3769 27.0188 63.2368 27.1402 63.0781 27.2896C62.6017 27.7286 62.2375 28.2609 61.8266 28.7559C60.9487 29.1762 59.8093 29.6431 59.1182 30.3436C58.8847 30.4463 58.7819 30.6425 58.6419 30.8386C58.371 31.1935 57.9321 31.4083 57.7173 31.7912C57.5398 32.1087 56.9701 33.2014 56.9701 33.519C56.9701 33.575 57.0261 33.5844 57.0728 33.5844C57.5024 33.5844 58.1842 33.1361 58.4737 32.8465C59.2676 32.062 60.0708 31.2869 60.8459 30.4743C61.3316 29.97 61.7238 29.3723 62.2468 28.9147C62.499 28.6812 62.8259 28.5411 63.1154 28.345C63.6851 27.9527 64.2455 27.5605 64.7498 27.0842C64.8805 26.9721 64.9833 26.832 65.1234 26.7293C65.1794 26.6826 65.3849 26.5425 65.4969 26.4397C65.5343 26.4024 65.553 26.3837 65.553 26.3557L65.5343 26.3183ZM59.5758 31.1188C59.305 31.4456 59.0434 31.7538 58.7352 32.034C58.5485 32.2115 58.3897 32.4076 58.2029 32.5757C58.0441 32.7251 57.8293 32.9026 57.6612 32.9119C57.5958 32.9119 57.6519 32.7625 57.6519 32.6878C57.6519 31.8286 58.6512 31.0721 59.2489 30.5864C59.5198 30.3623 59.7719 30.1194 60.0708 29.9607C60.4724 29.7365 60.9113 29.5871 61.3222 29.3723C60.7525 29.9794 60.0895 30.4837 59.5758 31.1188Z" fill="white" data-color-group="0"/><path d="M3.17538 16.8949H4.651C5.14599 16.8949 5.38881 16.7642 5.38881 16.5027C5.38881 16.2131 5.20203 16.073 4.83779 16.073H3.17538V16.8949ZM3.17538 15.3539H4.67902C5.08061 15.3539 5.28608 15.2325 5.28608 14.9803C5.28608 14.7095 5.08061 14.5787 4.66968 14.5787H3.18472V15.3539H3.17538ZM0.00933936 13.9437H5.23938C5.80908 13.9437 6.26671 14.0277 6.62161 14.2052C6.9765 14.3826 7.15395 14.6068 7.15395 14.8869C7.15395 15.2979 6.63095 15.5594 5.5756 15.6808C6.79906 15.8396 7.41545 16.1664 7.41545 16.6614C7.41545 17.2405 6.68698 17.53 5.2207 17.53H0L1.31685 16.7081V14.7842L0.00933936 13.9437Z" fill="white" data-color-group="0"/><path d="M10.4227 15.4473H11.5995L11.9637 15.438C12.356 15.438 12.5614 15.3072 12.5614 15.0457C12.5614 14.8776 12.4961 14.7655 12.3653 14.7002C12.2346 14.6441 11.9824 14.6161 11.6088 14.6161H10.4321L10.4227 15.4473ZM7.25668 13.9437H11.5995H12.2532L13.0938 13.9997C13.5141 14.0557 13.8596 14.1678 14.1211 14.3453C14.3826 14.5227 14.5134 14.7375 14.5134 14.971C14.5134 15.4286 13.9904 15.7182 12.9537 15.8396C13.3086 15.9236 13.5794 16.0544 13.7662 16.2131C13.953 16.3812 14.1305 16.6427 14.3079 17.0163L15.1765 17.5393H12.6362C12.4214 17.0163 12.2252 16.6334 12.0478 16.3906C11.9357 16.2412 11.6835 16.1571 11.2913 16.1571H10.4227V16.6988L11.7396 17.53H7.25668L8.57353 16.6988V14.7842L7.25668 13.9437Z" fill="white" data-color-group="0"/><path d="M18.2771 14.448C17.9036 14.448 17.5954 14.5694 17.3619 14.8122C17.1284 15.0551 17.007 15.3726 17.007 15.7555C17.007 16.1384 17.1191 16.4466 17.3525 16.6708C17.586 16.9042 17.8942 17.0163 18.2678 17.0163C18.6507 17.0163 18.9589 16.9042 19.1924 16.6708C19.4259 16.4373 19.5379 16.1384 19.5379 15.7555C19.5379 15.3726 19.4165 15.0644 19.1831 14.8216C18.9496 14.5694 18.6507 14.448 18.2771 14.448ZM18.3238 13.8223C19.2297 13.8223 20.0236 14.0277 20.6867 14.4293C21.3591 14.8309 21.686 15.3072 21.686 15.8489C21.686 16.3532 21.3498 16.7922 20.6774 17.1564C20.0049 17.5206 19.2017 17.7074 18.2771 17.7074C17.3712 17.7074 16.568 17.5206 15.8769 17.1471C15.1858 16.7735 14.8402 16.3439 14.8402 15.8489C14.8402 15.2979 15.1858 14.8122 15.8676 14.42C16.568 14.0277 17.3806 13.8223 18.3238 13.8223Z" fill="white" data-color-group="0"/><path d="M27.6725 13.9437L27.7939 15.6808L26.4117 14.5787H25.5805V16.6894L26.8974 17.53H22.4051L23.722 16.6894V14.5787H22.8908L21.5086 15.6808L21.63 13.9437H27.6725Z" fill="white" data-color-group="0"/><path d="M31.6978 13.9437H35.8912L34.5743 14.7842V16.6894L35.8912 17.53H31.6978L32.7158 16.6894V16.1011H30.6424V16.6894L31.6511 17.53H27.4671L28.7839 16.6894V14.7842L27.4671 13.9437H31.6511L30.6424 14.7842V15.2045H32.7158V14.7842L31.6978 13.9437Z" fill="white" data-color-group="0"/><path d="M42.5688 13.9437V15.494L41.2239 14.5321H38.693V15.3166H40.0845L41.0745 14.8963V16.5213L40.0845 16.0264H38.693V16.8202H41.2239L42.6809 15.7929V17.53H35.5269L36.8438 16.6988V14.7749L35.5269 13.9437H42.5688Z" fill="white" data-color-group="0"/><path d="M45.8843 15.4473H47.0517L47.4159 15.438C47.8082 15.438 48.0137 15.3072 48.0137 15.0457C48.0137 14.8776 47.9483 14.7655 47.8175 14.7002C47.6868 14.6441 47.4346 14.6161 47.0611 14.6161H45.8843V15.4473ZM42.7089 13.9437H47.0517H47.7055L48.546 13.9997C48.9663 14.0557 49.3118 14.1678 49.5733 14.3453C49.8348 14.5227 49.9656 14.7375 49.9656 14.971C49.9656 15.4286 49.4426 15.7182 48.4059 15.8396C48.7608 15.9236 49.0317 16.0544 49.2184 16.2131C49.4052 16.3812 49.5827 16.6427 49.7508 17.0163L50.6193 17.5393H48.079C47.8642 17.0163 47.6681 16.6334 47.4907 16.3906C47.3786 16.2412 47.1264 16.1571 46.7342 16.1571H45.8656V16.6988L47.1825 17.53H42.6996L44.0164 16.6988V14.7842L42.7089 13.9437Z" fill="white" data-color-group="0"/><path d="M50.4979 17.6701V15.8769C50.8155 16.2412 51.2638 16.5307 51.8241 16.7361C52.3845 16.9416 53.0009 17.0443 53.6827 17.0443C54.3924 17.0443 54.7567 16.9509 54.7567 16.7548C54.7567 16.6614 54.71 16.6054 54.6166 16.5774C54.5232 16.5494 54.2897 16.5213 53.9255 16.4933L53.141 16.4373C52.2257 16.3719 51.5906 16.2598 51.2077 16.1104C50.61 15.8676 50.3111 15.5314 50.3111 15.0924C50.3111 14.6815 50.5166 14.3546 50.9182 14.1211C51.3198 13.8876 51.8708 13.7662 52.5806 13.7662C53.2624 13.7662 53.8694 13.8596 54.4111 14.0464L54.5606 14.1024L55.5692 13.7942V15.3072C54.6259 14.6908 53.6266 14.392 52.5619 14.392C51.9175 14.392 51.6 14.4854 51.6 14.6815C51.6 14.7749 51.6747 14.8402 51.8335 14.8869C51.9922 14.9336 52.2818 14.971 52.7114 15.0084L53.4772 15.0644C54.4298 15.1391 55.0742 15.2605 55.4011 15.4099C55.9428 15.6715 56.2136 16.017 56.2136 16.4466C56.2136 16.8389 55.9988 17.1471 55.5692 17.3712C55.1396 17.6047 54.5606 17.7168 53.8414 17.7168C53.0663 17.7168 52.2631 17.586 51.4506 17.3339L50.4979 17.6701Z" fill="white" data-color-group="0"/><path d="M8.91909 7.77969V9.98378C7.70498 9.02182 6.39747 8.53618 4.99656 8.53618C4.37082 8.53618 3.87584 8.69495 3.53028 9.02182C3.17539 9.3487 3.00728 9.79699 3.00728 10.376C3.00728 11.5154 3.69839 12.0851 5.08062 12.0851C5.71569 12.0851 6.22936 11.9544 6.62161 11.6929V11.422L4.58563 10.2453H10.8523L9.03117 11.422V13.0191L7.92912 12.4961C6.89245 12.8416 5.82776 13.0191 4.71638 13.0191C3.39019 13.0191 2.26947 12.7669 1.37289 12.2719C0.476309 11.7769 0.0186806 11.1605 0.0186806 10.4227C0.0186806 9.6569 0.513667 8.99381 1.4943 8.44278C2.47493 7.89176 3.65169 7.61158 5.01524 7.61158C6.18266 7.61158 7.18197 7.82639 8.01318 8.26534L8.91909 7.77969Z" fill="white" data-color-group="0"/><path d="M13.9437 9.22729L13.0658 10.5815H14.8869L13.9437 9.22729ZM17.4459 7.77969L16.2505 8.68561L18.3332 11.5995L20.2197 12.7669H13.9343L15.6621 11.7396L15.438 11.394H12.5614L12.3373 11.7396L13.8409 12.7669H9.1806L10.6469 11.5995L12.7015 8.68561L11.5341 7.77969H17.4459Z" fill="white" data-color-group="0"/><path d="M23.255 9.87171H24.8894L25.3937 9.86237C25.9448 9.86237 26.2156 9.68492 26.2156 9.32069C26.2156 9.0872 26.1222 8.92843 25.9448 8.84438C25.7673 8.76033 25.4124 8.72297 24.8894 8.72297H23.2457V9.87171H23.255ZM18.8562 7.77969H24.8987H25.814L26.9814 7.85441C27.5698 7.92912 28.0461 8.08789 28.4103 8.34006C28.7746 8.59222 28.9614 8.88174 28.9614 9.20862C28.9614 9.84369 28.2422 10.2453 26.7946 10.4134C27.2803 10.5348 27.6632 10.7123 27.9247 10.9364C28.1862 11.1605 28.4384 11.5341 28.6718 12.0478L29.886 12.7669H26.3463C26.0475 12.0478 25.7766 11.5154 25.5338 11.1699C25.3844 10.9551 25.0295 10.8523 24.4878 10.8523H23.2737V11.6088L25.1042 12.7669H18.8655L20.696 11.6088V8.94711L18.8562 7.77969Z" fill="white" data-color-group="0"/><path d="M33.2014 9.87171H34.8358L35.3402 9.86237C35.8912 9.86237 36.162 9.68492 36.162 9.32069C36.162 9.0872 36.0686 8.92843 35.8912 8.84438C35.7137 8.76033 35.3588 8.72297 34.8358 8.72297H33.1921V9.87171H33.2014ZM28.8026 7.77969H34.8452H35.7604L36.9278 7.85441C37.5162 7.92912 37.9925 8.08789 38.3568 8.34006C38.721 8.59222 38.9078 8.88174 38.9078 9.20862C38.9078 9.84369 38.1887 10.2453 36.7411 10.4134C37.2267 10.5348 37.6096 10.7123 37.8711 10.9364C38.1326 11.1605 38.3848 11.5341 38.6183 12.0478L39.823 12.7669H36.2834C35.9846 12.0478 35.7137 11.5154 35.4709 11.1699C35.3215 10.9551 34.9666 10.8523 34.4249 10.8523H33.2108V11.6088L35.0413 12.7669H28.8026L30.6331 11.6088V8.94711L28.8026 7.77969Z" fill="white" data-color-group="0"/><path d="M38.693 7.77969H44.8476L43.0171 8.94711V11.6088L44.8476 12.7763H38.693L40.5235 11.6088V8.94711L38.693 7.77969Z" fill="white" data-color-group="0"/><path d="M44.7355 12.9724V10.4694C45.1838 10.9831 45.7909 11.3847 46.5754 11.6649C47.3599 11.9544 48.2191 12.0945 49.1624 12.0945C50.1524 12.0945 50.6474 11.9637 50.6474 11.6929C50.6474 11.5715 50.582 11.4874 50.4512 11.4407C50.3205 11.394 50.0029 11.3567 49.4986 11.3193L48.4059 11.2353C47.1358 11.1419 46.2392 10.9924 45.7162 10.7776C44.885 10.4414 44.4647 9.97444 44.4647 9.35804C44.4647 8.779 44.7449 8.33071 45.3052 8.00384C45.8656 7.67696 46.6314 7.51819 47.6121 7.51819C48.5553 7.51819 49.4052 7.64894 50.1524 7.91044L50.3578 7.98516L51.7587 7.55555V9.66624C50.4512 8.81636 49.0597 8.38675 47.5747 8.38675C46.6875 8.38675 46.2392 8.5175 46.2392 8.78834C46.2392 8.90975 46.3513 9.00315 46.5661 9.06852C46.7809 9.1339 47.1918 9.18993 47.7895 9.23663L48.8449 9.32069C50.1711 9.42342 51.0676 9.59153 51.5159 9.80633C52.2724 10.1706 52.646 10.6469 52.646 11.2539C52.646 11.7956 52.3471 12.2252 51.7494 12.5428C51.1517 12.8603 50.3485 13.0191 49.3399 13.0191C48.2565 13.0191 47.1544 12.8416 46.015 12.4774L44.7355 12.9724Z" fill="white" data-color-group="0"/><path d="M57.5678 8.48014C57.0448 8.48014 56.6246 8.64825 56.2977 8.98447C55.9708 9.32068 55.8027 9.75963 55.8027 10.292C55.8027 10.8243 55.9615 11.2446 56.2883 11.5715C56.6059 11.889 57.0355 12.0478 57.5678 12.0478C58.1002 12.0478 58.5298 11.889 58.8473 11.5715C59.1649 11.2539 59.3236 10.8243 59.3236 10.292C59.3236 9.75963 59.1555 9.33002 58.8287 8.98447C58.5111 8.64825 58.0908 8.48014 57.5678 8.48014ZM57.6426 7.61158C58.9034 7.61158 59.9961 7.89176 60.93 8.45212C61.8546 9.01248 62.3216 9.67558 62.3216 10.4321C62.3216 11.1325 61.8546 11.7396 60.9207 12.2532C59.9867 12.7669 58.8753 13.0191 57.5865 13.0191C56.3257 13.0191 55.2143 12.7576 54.2524 12.2439C53.2904 11.7302 52.8141 11.1232 52.8141 10.4414C52.8141 9.66624 53.2904 9.00314 54.243 8.45212C55.1956 7.89176 56.3257 7.61158 57.6426 7.61158Z" fill="white" data-color-group="0"/><path d="M65.5717 7.77969L68.6817 10.4788V8.94711L66.8512 7.77969H71.9598L70.1293 8.94711V12.7763H67.5516L64.4042 9.93709V11.6088L66.2441 12.7763H61.1261L62.9566 11.6088V8.94711L61.1261 7.77969H65.5717Z" fill="white" data-color-group="0"/><path d="M75.8823 3.01662L72.0625 14.8496L75.873 20.0983H75.8823V3.01662Z" fill="#AC5210" data-color-group="1"/><path d="M75.8823 3.05397V20.089L79.6928 14.8496L75.8823 3.05397Z" fill="#612700" data-color-group="2"/><path d="M75.8823 0L71.3901 13.9157L56.7646 13.8876L68.6163 22.4612L64.068 36.3581L75.8823 27.7379L87.6966 36.3581L83.1483 22.4612L95 13.8876L80.3746 13.9157L75.8823 0ZM75.8823 3.06331L79.6834 14.8589L92.0674 14.8402H92.0581L92.0488 14.8496L82.0276 22.0969L85.8848 33.8832L75.873 26.5705L65.8612 33.8739L69.7183 22.0969L59.6879 14.8402L72.0812 14.8683" fill="#A8AAAC" data-color-group="3"/><path d="M59.7066 14.8402L75.8636 20.089L72.0719 14.8589L59.7066 14.8402Z" fill="#9F4B0B" data-color-group="4"/><path d="M75.8636 20.1076L92.0768 14.8402L79.6834 14.8683L75.8636 20.1076L75.873 20.1263L75.8636 20.1076Z" fill="#9A4909" data-color-group="5"/><path d="M92.0674 14.8402L75.8636 20.0983L82.0183 22.0969L92.0674 14.8402Z" fill="#5F2600" data-color-group="6"/><path d="M75.8823 20.089L82.037 22.0876L85.8941 33.8832L75.8823 20.1077L75.873 20.089" fill="#612700" data-color-group="2"/><path d="M85.8848 33.8739L75.873 26.5705L75.8823 20.1077L85.8848 33.8739Z" fill="#7A3700" data-color-group="7"/><path d="M75.873 20.0983H75.8636L69.7183 22.0969L65.8705 33.8739L75.873 20.0983Z" fill="#A8500F" data-color-group="8"/><path d="M59.6879 14.8402L69.7183 22.0969L75.8636 20.0983H75.873V20.089L59.7065 14.8402" fill="#7D3800" data-color-group="9"/><path d="M65.8705 33.8739L75.873 26.5705L75.8823 20.0796L65.8705 33.8739Z" fill="#5F2600" data-color-group="6"/><path d="M57.6892 17.6327C57.269 17.6327 56.9328 17.2872 56.9328 16.8762C56.9328 16.456 57.2783 16.1197 57.6892 16.1197C58.1002 16.1197 58.4457 16.4466 58.4457 16.8762C58.4457 17.3058 58.1002 17.6327 57.6892 17.6327ZM58.3056 16.8856C58.3056 16.54 58.0348 16.2598 57.6799 16.2598C57.3437 16.2598 57.0635 16.5307 57.0635 16.8856C57.0635 17.2311 57.3437 17.502 57.6892 17.502C58.0348 17.502 58.3056 17.2124 58.3056 16.8856ZM57.6892 16.456C57.9321 16.456 58.0441 16.5307 58.0441 16.6988C58.0441 16.8109 57.9881 16.8669 57.8854 16.9042C58.0068 16.9509 58.0255 17.0257 58.0255 17.1377C58.0255 17.1844 58.0255 17.2498 58.0441 17.3058H57.8387C57.8293 17.2685 57.82 17.2405 57.82 17.1284C57.82 17.007 57.7546 16.9883 57.6425 16.9883H57.5585V17.3058H57.353V16.456H57.6892ZM57.5772 16.8295H57.6799C57.7733 16.8295 57.848 16.8109 57.848 16.7268C57.848 16.6241 57.7453 16.6241 57.6706 16.6241H57.5865L57.5772 16.8295Z" fill="white" data-color-group="0"/></g><defs><clipPath id="clip0_0_13"><rect width="95" height="36.3581" fill="white" data-color-group="0"/></clipPath></defs></svg>