<svg width="100%" height="100%" viewBox="0 0 142 81" fill="none" xmlns="http://www.w3.org/2000/svg" preserveAspectRatio="none"><path d="M29.6528 0.199998H36.3848C40.6688 0.199998 46.6868 2.682 46.6868 12.1C46.6868 20.464 42.6068 24.17 37.8128 24.17C35.9428 24.17 34.4128 23.626 32.8828 23.626C31.6928 23.626 30.8428 23.762 29.7208 24.17H29.6528C29.6528 24.17 31.1488 23.184 31.1488 20.056V3.43C31.1488 0.709998 29.6528 0.199998 29.6528 0.199998ZM37.6428 22.266C40.7028 22.266 41.8248 18.118 41.8248 12.1C41.8248 5.13 39.7508 2.002 36.3168 2.002H35.6708V21.79C35.6708 21.79 36.3848 22.266 37.6428 22.266ZM66.5827 24H59.1707C61.6527 22.606 58.0487 13.63 55.2267 13.324V20.77C55.2267 23.49 56.7227 24 56.7227 24H49.2427C49.2427 24 50.7047 23.49 50.7047 20.77V3.464C50.7047 0.743999 49.2427 0.199998 49.2427 0.199998H57.1647C59.9867 0.199998 65.0187 1.22 65.0187 6.83C65.0187 10.74 62.0607 12.474 59.1707 12.882C63.7947 15.534 64.7127 23.422 66.5827 24ZM55.1247 2.036V11.624H56.1447C58.0147 11.624 60.4287 10.944 60.4287 6.83C60.4287 2.682 57.9467 2.036 56.1447 2.036H55.1247ZM69.1324 20.77V3.43C69.1324 0.709998 67.6704 0.199998 67.6704 0.199998H75.1504C75.1504 0.199998 73.6544 0.709998 73.6544 3.43V20.77C73.6544 23.456 75.1504 24 75.1504 24H67.6704C67.6704 24 69.1324 23.456 69.1324 20.77ZM88.2837 20.974L81.2117 7.646V20.77C81.2117 23.456 82.7077 24 82.7077 24H77.1997C77.1997 24 78.6617 23.456 78.6617 20.77V3.43C78.6617 0.709998 77.1997 0.199998 77.1997 0.199998H83.7617C83.7617 0.199998 83.2857 1.56 84.3737 3.6L90.3237 14.514V3.43C90.3237 0.709998 88.8277 0.199998 88.8277 0.199998H94.3357C94.3357 0.199998 92.8737 0.709998 92.8737 3.43V20.702C92.8737 23.422 93.5197 24 93.5197 24H88.5897C88.5897 24 89.5077 23.286 88.2837 20.974ZM105.435 11.794C110.229 14.31 111.895 23.422 113.731 24H106.319C108.563 22.776 105.299 14.31 102.375 12.576V20.77C102.375 23.456 103.871 24 103.871 24H96.3911C96.3911 24 97.8531 23.456 97.8531 20.77V3.43C97.8531 0.709998 96.3911 0.199998 96.3911 0.199998H103.871C103.871 0.199998 102.375 0.709998 102.375 3.43V12.202C105.163 8.972 108.971 1.186 106.591 0.199998H113.663C110.059 2.138 109.923 7.646 105.435 11.794ZM25.9946 30.002H25.1786V38.808H25.9946C27.7286 38.808 29.9046 37.652 29.9046 34.422C29.9046 30.92 27.8306 30.002 25.9946 30.002ZM27.3546 52.17C24.8726 52.17 23.6826 51.626 22.1186 51.626C20.9626 51.626 20.3166 51.728 19.2286 52.17H19.1606C19.1606 52.17 20.6566 51.184 20.6566 48.056V31.43C20.6566 28.71 19.1606 28.2 19.1606 28.2H26.6066C29.4286 28.2 34.5966 29.118 34.5966 34.422C34.5966 38.502 30.6186 39.59 30.6186 39.59C30.6186 39.59 35.5826 40.678 35.5826 45.54C35.5826 50.368 31.5366 52.17 27.3546 52.17ZM27.1846 50.402C28.9526 50.402 30.8906 49.314 30.8906 45.54C30.8906 42.174 28.6466 40.678 26.5726 40.678H25.1786V49.892C25.1786 49.892 25.8926 50.402 27.1846 50.402ZM43.7716 39.76V49.756C44.0436 49.756 44.3156 49.756 44.6216 49.756C45.0976 49.756 45.5736 49.756 46.0836 49.756C48.2596 49.756 50.7076 49.586 52.6796 47.852C53.0536 50.198 51.4896 52.17 48.4636 52.17C45.4036 52.17 44.3836 51.626 41.3916 51.626C39.1476 51.626 37.7876 52.17 37.7876 52.17C37.7876 52.17 39.2496 51.49 39.2496 48.77V31.43C39.2496 28.71 37.7876 28.2 37.7876 28.2H51.3536L52.4416 32.994C52.4416 32.994 50.2316 30.24 45.0636 30.24H43.7716V37.652C48.5316 37.584 51.0476 36.7 51.0476 36.7L49.4836 41.562C48.7016 40.644 47.8176 39.896 43.7716 39.76ZM60.1296 48.77V30.41C55.6076 30.682 54.1116 33.096 54.1116 33.096L55.1996 28.2H69.5476L70.6016 33.096C70.6016 33.096 69.1056 30.682 64.6176 30.41V48.77C64.6176 51.49 66.1136 52 66.1136 52H58.6336C58.6336 52 60.1296 51.49 60.1296 48.77ZM77.6276 48.77V30.41C73.1056 30.682 71.6096 33.096 71.6096 33.096L72.6976 28.2H87.0456L88.0996 33.096C88.0996 33.096 86.6036 30.682 82.1156 30.41V48.77C82.1156 51.49 83.6116 52 83.6116 52H76.1316C76.1316 52 77.6276 51.49 77.6276 48.77ZM95.6017 39.76V49.756C95.8737 49.756 96.1457 49.756 96.4517 49.756C96.9277 49.756 97.4037 49.756 97.9137 49.756C100.09 49.756 102.538 49.586 104.51 47.852C104.884 50.198 103.32 52.17 100.294 52.17C97.2337 52.17 96.2137 51.626 93.2217 51.626C90.9777 51.626 89.6177 52.17 89.6177 52.17C89.6177 52.17 91.0797 51.49 91.0797 48.77V31.43C91.0797 28.71 89.6177 28.2 89.6177 28.2H103.184L104.272 32.994C104.272 32.994 102.062 30.24 96.8937 30.24H95.6017V37.652C100.362 37.584 102.878 36.7 102.878 36.7L101.314 41.562C100.532 40.644 99.6477 39.896 95.6017 39.76ZM123.792 52H116.38C118.862 50.606 115.258 41.63 112.436 41.324V48.77C112.436 51.49 113.932 52 113.932 52H106.452C106.452 52 107.914 51.49 107.914 48.77V31.464C107.914 28.744 106.452 28.2 106.452 28.2H114.374C117.196 28.2 122.228 29.22 122.228 34.83C122.228 38.74 119.27 40.474 116.38 40.882C121.004 43.534 121.922 51.422 123.792 52ZM112.334 30.036V39.624H113.354C115.224 39.624 117.638 38.944 117.638 34.83C117.638 30.682 115.156 30.036 113.354 30.036H112.334ZM7.81591 58.002H6.99991V66.808H7.81591C9.54991 66.808 11.7259 65.652 11.7259 62.422C11.7259 58.92 9.65191 58.002 7.81591 58.002ZM9.17592 80.17C6.69391 80.17 5.50391 79.626 3.93991 79.626C2.78391 79.626 2.13791 79.728 1.04991 80.17H0.981914C0.981914 80.17 2.47791 79.184 2.47791 76.056V59.43C2.47791 56.71 0.981914 56.2 0.981914 56.2H8.42791C11.2499 56.2 16.4179 57.118 16.4179 62.422C16.4179 66.502 12.4399 67.59 12.4399 67.59C12.4399 67.59 17.4039 68.678 17.4039 73.54C17.4039 78.368 13.3579 80.17 9.17592 80.17ZM9.00591 78.402C10.7739 78.402 12.7119 77.314 12.7119 73.54C12.7119 70.174 10.4679 68.678 8.39391 68.678H6.99991V77.892C6.99991 77.892 7.71391 78.402 9.00591 78.402ZM28.5288 55.996C33.4928 55.996 37.4708 60.348 37.4708 68.066C37.4708 75.852 33.4928 80.272 28.5288 80.272C23.5648 80.272 19.6208 75.852 19.6208 68.066C19.6208 60.348 23.5648 55.996 28.5288 55.996ZM24.5848 68.066C24.5848 74.152 25.9788 78.3 28.5288 78.3C31.0788 78.3 32.5068 73.914 32.5068 68.066C32.5068 62.014 31.0788 58.002 28.5288 58.002C25.9788 58.002 24.5848 62.252 24.5848 68.066ZM55.8728 59.464V70.752C55.8728 75.682 53.7308 80.204 48.5968 80.204C43.4628 80.204 41.3208 75.682 41.3208 70.752V59.464C41.3208 56.744 39.8588 56.2 39.8588 56.2H47.3388C47.3388 56.2 45.8768 56.744 45.8768 59.464V71.364C45.8768 74.9 46.9648 77.824 49.3448 77.824C51.7248 77.824 52.9488 74.9 52.9488 71.364V59.464C52.9488 56.744 51.4868 56.2 51.4868 56.2H57.3688C57.3688 56.2 55.8728 56.744 55.8728 59.464ZM76.5934 80H69.1814C71.6634 78.606 68.0594 69.63 65.2374 69.324V76.77C65.2374 79.49 66.7334 80 66.7334 80H59.2534C59.2534 80 60.7154 79.49 60.7154 76.77V59.464C60.7154 56.744 59.2534 56.2 59.2534 56.2H67.1754C69.9974 56.2 75.0294 57.22 75.0294 62.83C75.0294 66.74 72.0714 68.474 69.1814 68.882C73.8054 71.534 74.7234 79.422 76.5934 80ZM65.1354 58.036V67.624H66.1554C68.0254 67.624 70.4394 66.944 70.4394 62.83C70.4394 58.682 67.9574 58.036 66.1554 58.036H65.1354ZM84.5151 58.002H83.6991V66.808H84.5151C86.2491 66.808 88.4251 65.652 88.4251 62.422C88.4251 58.92 86.3511 58.002 84.5151 58.002ZM85.8751 80.17C83.3931 80.17 82.2031 79.626 80.6391 79.626C79.4831 79.626 78.8371 79.728 77.7491 80.17H77.6811C77.6811 80.17 79.1771 79.184 79.1771 76.056V59.43C79.1771 56.71 77.6811 56.2 77.6811 56.2H85.1271C87.9491 56.2 93.1171 57.118 93.1171 62.422C93.1171 66.502 89.1391 67.59 89.1391 67.59C89.1391 67.59 94.1031 68.678 94.1031 73.54C94.1031 78.368 90.0571 80.17 85.8751 80.17ZM85.7051 78.402C87.4731 78.402 89.4111 77.314 89.4111 73.54C89.4111 70.174 87.1671 68.678 85.0931 68.678H83.6991V77.892C83.6991 77.892 84.4131 78.402 85.7051 78.402ZM105.228 55.996C110.192 55.996 114.17 60.348 114.17 68.066C114.17 75.852 110.192 80.272 105.228 80.272C100.264 80.272 96.32 75.852 96.32 68.066C96.32 60.348 100.264 55.996 105.228 55.996ZM101.284 68.066C101.284 74.152 102.678 78.3 105.228 78.3C107.778 78.3 109.206 73.914 109.206 68.066C109.206 62.014 107.778 58.002 105.228 58.002C102.678 58.002 101.284 62.252 101.284 68.066ZM127.812 76.974L120.74 63.646V76.77C120.74 79.456 122.236 80 122.236 80H116.728C116.728 80 118.19 79.456 118.19 76.77V59.43C118.19 56.71 116.728 56.2 116.728 56.2H123.29C123.29 56.2 122.814 57.56 123.902 59.6L129.852 70.514V59.43C129.852 56.71 128.356 56.2 128.356 56.2H133.864C133.864 56.2 132.402 56.71 132.402 59.43V76.702C132.402 79.422 133.048 80 133.048 80H128.118C128.118 80 129.036 79.286 127.812 76.974ZM138.435 80.17C136.973 80.17 135.749 79.048 135.749 77.688C135.749 76.294 136.973 75.206 138.435 75.206C139.931 75.206 141.155 76.294 141.155 77.688C141.155 79.048 139.931 80.17 138.435 80.17Z" fill="white" data-color-group="0"/></svg>