<svg width="100%" height="100%" viewBox="0 0 98 24" fill="none" xmlns="http://www.w3.org/2000/svg" preserveAspectRatio="none"><g clip-path="url(#clip0_0_10)"><rect width="98" height="24" rx="2" fill="url(#paint0_linear_0_10)"/><path d="M11.9041 5.448H15.9681C18.5121 5.448 19.5521 6.376 19.5521 8.36C19.5521 9.832 18.8801 10.728 17.5841 11C19.0561 11.208 19.7441 12.072 19.7441 13.864C19.7441 16.04 18.6401 17 16.2081 17H11.9041V5.448ZM14.3041 10.168H15.5841C16.2721 10.168 16.6401 10.008 16.8801 9.752C17.1521 9.464 17.2001 9.176 17.2001 8.616C17.2001 7.32 16.2881 7.224 15.3441 7.224H14.3041V10.168ZM14.3041 11.944V15.224H15.2801C16.6081 15.224 17.3281 15.016 17.3281 13.56C17.3281 12.392 16.8641 11.944 15.5041 11.944H14.3041ZM23.2053 5.448H25.6213V13.224C25.6213 14.76 26.0853 15.496 27.0933 15.496C28.1973 15.496 28.6933 14.696 28.6933 13.24V5.448H31.0453V13.192C31.0453 15.928 29.7973 17.208 27.0613 17.208C24.4213 17.208 23.2053 15.88 23.2053 13.176V5.448ZM33.7386 5.448H36.3786L38.1066 10.328L39.9466 5.448H42.4106L39.1946 12.76V17H36.7466V12.76L33.7386 5.448ZM50.3041 5.448H53.5521L56.6401 13.448V5.448H58.8801V17H55.7121L52.5441 8.552V17H50.3041V5.448ZM70.4319 11.144C70.4319 14.616 70.3199 17.208 66.3679 17.208C62.6719 17.208 62.4159 14.488 62.4159 11.08C62.4159 7.704 62.7999 5.144 66.3999 5.144C70.2559 5.144 70.4319 7.576 70.4319 11.144ZM64.8799 10.44V11.416C64.8799 14.104 65.0239 15.496 66.3999 15.496C67.9199 15.496 67.9679 14.12 67.9679 10.968V9.864C67.9679 7.544 67.5039 6.872 66.4159 6.872C65.1679 6.872 64.8799 7.88 64.8799 10.44ZM72.9012 5.448H75.3812L76.9012 13.56L78.7412 5.448H81.5892L83.3332 13.56L84.7892 5.448H87.1572L84.5972 17H81.9252L80.1012 8.552L78.0852 17H75.4612L72.9012 5.448Z" fill="white" data-color-group="0"/></g><rect x="0.25" y="0.25" width="97.5" height="23.5" rx="1.75" stroke="white" stroke-width="0.5"/><defs><linearGradient id="paint0_linear_0_10" x1="0" y1="0" x2="97.0365" y2="22.9279" gradientUnits="userSpaceOnUse"><stop stop-color="#BC5E01"/><stop offset="1" stop-color="#5A2600"/></linearGradient><clipPath id="clip0_0_10"><rect width="98" height="24" rx="2" fill="white" data-color-group="0"/></clipPath></defs></svg>