<svg width="100%" height="100%" viewBox="0 0 242 9" fill="none" xmlns="http://www.w3.org/2000/svg" preserveAspectRatio="none"><path d="M0.6 0.779999H2.11V5.64C2.11 6.6 2.4 7.06 3.03 7.06C3.72 7.06 4.03 6.56 4.03 5.65V0.779999H5.5V5.62C5.5 7.33 4.72 8.13 3.01 8.13C1.36 8.13 0.6 7.3 0.6 5.61V0.779999ZM6.76328 0.779999H8.79328L10.7233 5.78V0.779999H12.1233V8H10.1433L8.16328 2.72V8H6.76328V0.779999ZM17.9132 2.84V3.06H16.4332V2.92C16.4332 2.11 16.1732 1.77 15.7132 1.77C14.8832 1.77 14.8332 2.84 14.8332 4.5C14.8332 5.81 14.8332 6.99 15.7232 6.99C16.2332 6.99 16.5032 6.58 16.5032 5.65V5.57H17.9932V5.78C17.9932 7.27 17.3132 8.08 15.7432 8.08C13.4632 8.08 13.3232 6.45 13.3232 4.4C13.3232 2.36 13.3932 0.67 15.8132 0.67C17.1932 0.67 17.9132 1.35 17.9132 2.84ZM23.8998 4.34C23.8998 6.51 23.8298 8.13 21.3598 8.13C19.0498 8.13 18.8898 6.43 18.8898 4.3C18.8898 2.19 19.1298 0.589999 21.3798 0.589999C23.7898 0.589999 23.8998 2.11 23.8998 4.34ZM20.4298 3.9V4.51C20.4298 6.19 20.5198 7.06 21.3798 7.06C22.3298 7.06 22.3598 6.2 22.3598 4.23V3.54C22.3598 2.09 22.0698 1.67 21.3898 1.67C20.6098 1.67 20.4298 2.3 20.4298 3.9ZM25.0531 0.779999H27.4431L28.5831 5.69L29.7931 0.779999H32.1431V8H30.6731V2.43L29.2631 8H27.8231L26.4831 2.43V8H25.0531V0.779999ZM33.4232 0.779999H35.9632C37.4432 0.779999 38.0632 1.44 38.0632 2.95C38.0632 4.46 37.3432 5.06 35.9732 5.06H34.9432V8H33.4232V0.779999ZM34.9432 3.95H35.5532C36.1932 3.95 36.5332 3.64 36.5332 2.92C36.5332 2.02 36.0832 1.89 35.4332 1.89H34.9432V3.95ZM38.9398 0.779999H41.4498C42.7598 0.779999 43.3998 1.38 43.3998 2.69C43.3998 3.72 42.9798 4.28 42.0898 4.45C42.9398 4.57 43.3198 4.86 43.3798 5.87L43.4498 7.11C43.4798 7.67 43.5098 7.85 43.5598 8H42.0798C41.9598 7.73 41.9198 7.58 41.9198 7.21V6.1C41.9198 5.23 41.6098 5.01 40.7498 5.01H40.4598V8H38.9398V0.779999ZM40.4598 1.89V3.9H40.8098C41.5098 3.9 41.8898 3.75 41.8898 2.87C41.8898 2.02 41.5398 1.89 40.7798 1.89H40.4598ZM49.4565 4.34C49.4565 6.51 49.3865 8.13 46.9165 8.13C44.6065 8.13 44.4465 6.43 44.4465 4.3C44.4465 2.19 44.6865 0.589999 46.9365 0.589999C49.3465 0.589999 49.4565 2.11 49.4565 4.34ZM45.9865 3.9V4.51C45.9865 6.19 46.0765 7.06 46.9365 7.06C47.8865 7.06 47.9165 6.2 47.9165 4.23V3.54C47.9165 2.09 47.6265 1.67 46.9465 1.67C46.1665 1.67 45.9865 2.3 45.9865 3.9ZM50.6098 0.779999H52.9998L54.1398 5.69L55.3498 0.779999H57.6998V8H56.2298V2.43L54.8198 8H53.3798L52.0398 2.43V8H50.6098V0.779999ZM58.9698 0.779999H60.4798V8H58.9698V0.779999ZM66.153 2.58V2.83H64.673V2.66C64.673 2.04 64.423 1.72 63.943 1.72C63.503 1.72 63.213 2.04 63.213 2.52C63.213 2.82 63.353 3.09 63.673 3.29L65.133 4.22C66.023 4.78 66.243 5.26 66.243 6.05C66.243 7.44 65.443 8.13 63.763 8.13C61.993 8.13 61.573 7.16 61.573 6.22V5.77H63.103V5.96C63.103 6.68 63.313 7.04 63.923 7.04C64.433 7.04 64.723 6.75 64.723 6.24C64.723 5.65 64.343 5.47 63.933 5.22L63.033 4.67C62.103 4.1 61.673 3.65 61.673 2.58C61.673 1.25 62.663 0.66 64.063 0.66C66.073 0.66 66.153 1.92 66.153 2.58ZM67.3097 0.779999H68.8197V8H67.3097V0.779999ZM70.1129 0.779999H72.1429L74.0729 5.78V0.779999H75.4729V8H73.4929L71.5129 2.72V8H70.1129V0.779999ZM81.5728 2.77V2.95H80.0728V2.6C80.0728 2.05 79.7428 1.67 79.2128 1.67C78.2328 1.67 78.2228 2.82 78.2228 4.3C78.2228 5.99 78.2228 7.02 79.3228 7.02C79.5928 7.02 79.8328 6.97 80.0828 6.88V5.29H79.2528V4.17H81.5728V7.83C80.5228 8.03 80.0028 8.09 79.4828 8.09C78.0628 8.09 77.2828 7.63 76.9828 6.84C76.7328 6.18 76.6928 5.29 76.6928 4.25C76.6928 2.4 76.8628 0.6 79.2428 0.6C80.7428 0.6 81.5728 1.38 81.5728 2.77ZM89.9229 4.18C89.9229 5.52 89.8829 6.5 89.1129 7.14C89.7129 6.96 89.7629 6.96 90.5029 6.96V8H88.5229C88.2129 8.03 87.9929 8.05 87.5829 8.05C85.0529 8.05 85.0129 6.49 85.0129 4.18C85.0129 2.25 85.1229 0.589999 87.4929 0.589999C89.8329 0.589999 89.9229 2.28 89.9229 4.18ZM86.5129 4.1V4.68C86.5129 6.19 86.6829 6.96 87.4429 6.96C88.4029 6.96 88.4029 5.76 88.4029 3.92C88.4029 2.8 88.4029 1.67 87.4629 1.67C86.5129 1.67 86.5129 2.99 86.5129 4.1ZM91.1762 0.779999H92.6862V5.64C92.6862 6.6 92.9762 7.06 93.6062 7.06C94.2962 7.06 94.6062 6.56 94.6062 5.65V0.779999H96.0762V5.62C96.0762 7.33 95.2962 8.13 93.5862 8.13C91.9362 8.13 91.1762 7.3 91.1762 5.61V0.779999ZM98.7695 0.779999H100.759L102.719 8H101.129L100.729 6.4H98.6695L98.2595 8H96.7695L98.7695 0.779999ZM99.6695 2.17L98.9595 5.31H100.419L99.6695 2.17ZM103.433 0.779999H104.963V6.8H107.203V8H103.433V0.779999ZM107.876 0.779999H109.386V8H107.876V0.779999ZM110.089 0.779999H114.959V1.95H113.279V8H111.749V1.95H110.089V0.779999ZM115.099 0.779999H116.749L117.829 3.83L118.979 0.779999H120.519L118.509 5.35V8H116.979V5.35L115.099 0.779999ZM120.358 6.68H121.668L120.928 8.98H119.968L120.358 6.68ZM124.702 0.779999H126.212V5.64C126.212 6.6 126.502 7.06 127.132 7.06C127.822 7.06 128.132 6.56 128.132 5.65V0.779999H129.602V5.62C129.602 7.33 128.822 8.13 127.112 8.13C125.462 8.13 124.702 7.3 124.702 5.61V0.779999ZM130.865 0.779999H132.895L134.825 5.78V0.779999H136.225V8H134.245L132.265 2.72V8H130.865V0.779999ZM137.485 0.779999H141.235V1.89H139.005V3.74H141.135V4.85H139.005V8H137.485V0.779999ZM146.888 4.34C146.888 6.51 146.818 8.13 144.348 8.13C142.038 8.13 141.878 6.43 141.878 4.3C141.878 2.19 142.118 0.589999 144.368 0.589999C146.778 0.589999 146.888 2.11 146.888 4.34ZM143.418 3.9V4.51C143.418 6.19 143.508 7.06 144.368 7.06C145.318 7.06 145.348 6.2 145.348 4.23V3.54C145.348 2.09 145.058 1.67 144.378 1.67C143.598 1.67 143.418 2.3 143.418 3.9ZM148.041 0.779999H150.551C151.861 0.779999 152.501 1.38 152.501 2.69C152.501 3.72 152.081 4.28 151.191 4.45C152.041 4.57 152.421 4.86 152.481 5.87L152.551 7.11C152.581 7.67 152.611 7.85 152.661 8H151.181C151.061 7.73 151.021 7.58 151.021 7.21V6.1C151.021 5.23 150.711 5.01 149.851 5.01H149.561V8H148.041V0.779999ZM149.561 1.89V3.9H149.911C150.611 3.9 150.991 3.75 150.991 2.87C150.991 2.02 150.641 1.89 149.881 1.89H149.561ZM158.438 2.77V2.95H156.938V2.6C156.938 2.05 156.608 1.67 156.078 1.67C155.098 1.67 155.088 2.82 155.088 4.3C155.088 5.99 155.088 7.02 156.188 7.02C156.458 7.02 156.698 6.97 156.948 6.88V5.29H156.118V4.17H158.438V7.83C157.388 8.03 156.868 8.09 156.348 8.09C154.928 8.09 154.148 7.63 153.848 6.84C153.598 6.18 153.558 5.29 153.558 4.25C153.558 2.4 153.728 0.6 156.108 0.6C157.608 0.6 158.438 1.38 158.438 2.77ZM159.741 0.779999H163.681V1.89H161.251V3.67H163.491V4.78H161.251V6.87H163.761V8H159.741V0.779999ZM164.171 0.779999H169.041V1.95H167.361V8H165.831V1.95H164.171V0.779999ZM169.171 0.779999H174.041V1.95H172.361V8H170.831V1.95H169.171V0.779999ZM175.596 0.779999H177.586L179.546 8H177.956L177.556 6.4H175.496L175.086 8H173.596L175.596 0.779999ZM176.496 2.17L175.786 5.31H177.246L176.496 2.17ZM180.279 0.779999H182.819C184.409 0.779999 185.059 1.36 185.059 2.6C185.059 3.52 184.639 4.08 183.829 4.25C184.749 4.38 185.179 4.92 185.179 6.04C185.179 7.4 184.489 8 182.969 8H180.279V0.779999ZM181.779 3.73H182.579C183.009 3.73 183.239 3.63 183.389 3.47C183.559 3.29 183.589 3.11 183.589 2.76C183.589 1.95 183.019 1.89 182.429 1.89H181.779V3.73ZM181.779 4.84V6.89H182.389C183.219 6.89 183.669 6.76 183.669 5.85C183.669 5.12 183.379 4.84 182.529 4.84H181.779ZM186.372 0.779999H187.902V6.8H190.142V8H186.372V0.779999ZM190.816 0.779999H194.756V1.89H192.326V3.67H194.566V4.78H192.326V6.87H194.836V8H190.816V0.779999ZM198.052 0.779999H200.592C202.182 0.779999 202.832 1.36 202.832 2.6C202.832 3.52 202.412 4.08 201.602 4.25C202.522 4.38 202.952 4.92 202.952 6.04C202.952 7.4 202.262 8 200.742 8H198.052V0.779999ZM199.552 3.73H200.352C200.782 3.73 201.012 3.63 201.162 3.47C201.332 3.29 201.362 3.11 201.362 2.76C201.362 1.95 200.792 1.89 200.202 1.89H199.552V3.73ZM199.552 4.84V6.89H200.162C200.992 6.89 201.442 6.76 201.442 5.85C201.442 5.12 201.152 4.84 200.302 4.84H199.552ZM209.076 4.34C209.076 6.51 209.006 8.13 206.536 8.13C204.226 8.13 204.066 6.43 204.066 4.3C204.066 2.19 204.306 0.589999 206.556 0.589999C208.966 0.589999 209.076 2.11 209.076 4.34ZM205.606 3.9V4.51C205.606 6.19 205.696 7.06 206.556 7.06C207.506 7.06 207.536 6.2 207.536 4.23V3.54C207.536 2.09 207.246 1.67 206.566 1.67C205.786 1.67 205.606 2.3 205.606 3.9ZM210.229 0.779999H211.739V5.64C211.739 6.6 212.029 7.06 212.659 7.06C213.349 7.06 213.659 6.56 213.659 5.65V0.779999H215.129V5.62C215.129 7.33 214.349 8.13 212.639 8.13C210.989 8.13 210.229 7.3 210.229 5.61V0.779999ZM216.342 0.779999H218.852C220.162 0.779999 220.802 1.38 220.802 2.69C220.802 3.72 220.382 4.28 219.492 4.45C220.342 4.57 220.722 4.86 220.782 5.87L220.852 7.11C220.882 7.67 220.912 7.85 220.962 8H219.482C219.362 7.73 219.322 7.58 219.322 7.21V6.1C219.322 5.23 219.012 5.01 218.152 5.01H217.862V8H216.342V0.779999ZM217.862 1.89V3.9H218.212C218.912 3.9 219.292 3.75 219.292 2.87C219.292 2.02 218.942 1.89 218.182 1.89H217.862ZM221.949 0.779999H224.489C226.079 0.779999 226.729 1.36 226.729 2.6C226.729 3.52 226.309 4.08 225.499 4.25C226.419 4.38 226.849 4.92 226.849 6.04C226.849 7.4 226.159 8 224.639 8H221.949V0.779999ZM223.449 3.73H224.249C224.679 3.73 224.909 3.63 225.059 3.47C225.229 3.29 225.259 3.11 225.259 2.76C225.259 1.95 224.689 1.89 224.099 1.89H223.449V3.73ZM223.449 4.84V6.89H224.059C224.889 6.89 225.339 6.76 225.339 5.85C225.339 5.12 225.049 4.84 224.199 4.84H223.449ZM232.972 4.34C232.972 6.51 232.902 8.13 230.432 8.13C228.122 8.13 227.962 6.43 227.962 4.3C227.962 2.19 228.202 0.589999 230.452 0.589999C232.862 0.589999 232.972 2.11 232.972 4.34ZM229.502 3.9V4.51C229.502 6.19 229.592 7.06 230.452 7.06C231.402 7.06 231.432 6.2 231.432 4.23V3.54C231.432 2.09 231.142 1.67 230.462 1.67C229.682 1.67 229.502 2.3 229.502 3.9ZM234.175 0.779999H236.205L238.135 5.78V0.779999H239.535V8H237.555L235.575 2.72V8H234.175V0.779999ZM240.715 6.68H241.885V8H240.715V6.68Z" fill="#D1D1D1" data-color-group="0"/></svg>