<svg width="100%" height="100%" viewBox="0 0 159 9" fill="none" xmlns="http://www.w3.org/2000/svg" preserveAspectRatio="none"><path d="M0.06 0.779999H4.93V1.95H3.25V8H1.72V1.95H0.06V0.779999ZM5.63 0.779999H9.57V1.89H7.14V3.67H9.38V4.78H7.14V6.87H9.65V8H5.63V0.779999ZM10.16 0.779999H11.88L12.9 3.15L13.92 0.779999H15.49L13.69 4.35L15.52 8H13.81L12.7 5.51L11.59 8H10.03L11.9 4.22L10.16 0.779999ZM17.6366 0.779999H19.6266L21.5866 8H19.9966L19.5966 6.4H17.5366L17.1266 8H15.6366L17.6366 0.779999ZM18.5366 2.17L17.8266 5.31H19.2866L18.5366 2.17ZM26.6999 2.58V2.83H25.2199V2.66C25.2199 2.04 24.9699 1.72 24.4899 1.72C24.0499 1.72 23.7599 2.04 23.7599 2.52C23.7599 2.82 23.8999 3.09 24.2199 3.29L25.6799 4.22C26.5699 4.78 26.7899 5.26 26.7899 6.05C26.7899 7.44 25.9899 8.13 24.3099 8.13C22.5399 8.13 22.1199 7.16 22.1199 6.22V5.77H23.6499V5.96C23.6499 6.68 23.8599 7.04 24.4699 7.04C24.9799 7.04 25.2699 6.75 25.2699 6.24C25.2699 5.65 24.8899 5.47 24.4799 5.22L23.5799 4.67C22.6499 4.1 22.2199 3.65 22.2199 2.58C22.2199 1.25 23.2099 0.66 24.6099 0.66C26.6199 0.66 26.6999 1.92 26.6999 2.58ZM34.4734 2.58V2.83H32.9934V2.66C32.9934 2.04 32.7434 1.72 32.2634 1.72C31.8234 1.72 31.5334 2.04 31.5334 2.52C31.5334 2.82 31.6734 3.09 31.9934 3.29L33.4534 4.22C34.3434 4.78 34.5634 5.26 34.5634 6.05C34.5634 7.44 33.7634 8.13 32.0834 8.13C30.3134 8.13 29.8934 7.16 29.8934 6.22V5.77H31.4234V5.96C31.4234 6.68 31.6334 7.04 32.2434 7.04C32.7534 7.04 33.0434 6.75 33.0434 6.24C33.0434 5.65 32.6634 5.47 32.2534 5.22L31.3534 4.67C30.4234 4.1 29.9934 3.65 29.9934 2.58C29.9934 1.25 30.9834 0.66 32.3834 0.66C34.3934 0.66 34.4734 1.92 34.4734 2.58ZM35.06 0.779999H39.93V1.95H38.25V8H36.72V1.95H35.06V0.779999ZM40.6 0.779999H43.11C44.42 0.779999 45.06 1.38 45.06 2.69C45.06 3.72 44.64 4.28 43.75 4.45C44.6 4.57 44.98 4.86 45.04 5.87L45.11 7.11C45.14 7.67 45.17 7.85 45.22 8H43.74C43.62 7.73 43.58 7.58 43.58 7.21V6.1C43.58 5.23 43.27 5.01 42.41 5.01H42.12V8H40.6V0.779999ZM42.12 1.89V3.9H42.47C43.17 3.9 43.55 3.75 43.55 2.87C43.55 2.02 43.2 1.89 42.44 1.89H42.12ZM47.6366 0.779999H49.6266L51.5866 8H49.9966L49.5966 6.4H47.5366L47.1266 8H45.6366L47.6366 0.779999ZM48.5366 2.17L47.8266 5.31H49.2866L48.5366 2.17ZM52.2999 0.779999H53.8099V8H52.2999V0.779999ZM59.8931 2.77V2.95H58.3931V2.6C58.3931 2.05 58.0631 1.67 57.5331 1.67C56.5531 1.67 56.5431 2.82 56.5431 4.3C56.5431 5.99 56.5431 7.02 57.6431 7.02C57.9131 7.02 58.1531 6.97 58.4031 6.88V5.29H57.5731V4.17H59.8931V7.83C58.8431 8.03 58.3231 8.09 57.8031 8.09C56.3831 8.09 55.6031 7.63 55.3031 6.84C55.0531 6.18 55.0131 5.29 55.0131 4.25C55.0131 2.4 55.1831 0.6 57.5631 0.6C59.0631 0.6 59.8931 1.38 59.8931 2.77ZM61.2464 0.779999H62.7664V3.64H64.4764V0.779999H65.9964V8H64.4764V4.82H62.7664V8H61.2464V0.779999ZM66.7397 0.779999H71.6097V1.95H69.9297V8H68.3997V1.95H66.7397V0.779999ZM74.5465 0.779999H77.0865C78.6765 0.779999 79.3265 1.36 79.3265 2.6C79.3265 3.52 78.9065 4.08 78.0965 4.25C79.0165 4.38 79.4465 4.92 79.4465 6.04C79.4465 7.4 78.7565 8 77.2365 8H74.5465V0.779999ZM76.0465 3.73H76.8465C77.2765 3.73 77.5065 3.63 77.6565 3.47C77.8265 3.29 77.8565 3.11 77.8565 2.76C77.8565 1.95 77.2865 1.89 76.6965 1.89H76.0465V3.73ZM76.0465 4.84V6.89H76.6565C77.4865 6.89 77.9365 6.76 77.9365 5.85C77.9365 5.12 77.6465 4.84 76.7965 4.84H76.0465ZM85.5698 4.34C85.5698 6.51 85.4998 8.13 83.0298 8.13C80.7198 8.13 80.5598 6.43 80.5598 4.3C80.5598 2.19 80.7998 0.589999 83.0498 0.589999C85.4598 0.589999 85.5698 2.11 85.5698 4.34ZM82.0998 3.9V4.51C82.0998 6.19 82.1898 7.06 83.0498 7.06C83.9998 7.06 84.0298 6.2 84.0298 4.23V3.54C84.0298 2.09 83.7398 1.67 83.0598 1.67C82.2798 1.67 82.0998 2.3 82.0998 3.9ZM86.723 0.779999H88.233V5.64C88.233 6.6 88.523 7.06 89.153 7.06C89.843 7.06 90.153 6.56 90.153 5.65V0.779999H91.623V5.62C91.623 7.33 90.843 8.13 89.133 8.13C87.483 8.13 86.723 7.3 86.723 5.61V0.779999ZM92.8363 0.779999H95.3463C96.6563 0.779999 97.2963 1.38 97.2963 2.69C97.2963 3.72 96.8763 4.28 95.9863 4.45C96.8363 4.57 97.2163 4.86 97.2763 5.87L97.3463 7.11C97.3763 7.67 97.4063 7.85 97.4563 8H95.9763C95.8563 7.73 95.8163 7.58 95.8163 7.21V6.1C95.8163 5.23 95.5063 5.01 94.6463 5.01H94.3563V8H92.8363V0.779999ZM94.3563 1.89V3.9H94.7063C95.4063 3.9 95.7863 3.75 95.7863 2.87C95.7863 2.02 95.4363 1.89 94.6763 1.89H94.3563ZM98.443 0.779999H100.983C102.573 0.779999 103.223 1.36 103.223 2.6C103.223 3.52 102.803 4.08 101.993 4.25C102.913 4.38 103.343 4.92 103.343 6.04C103.343 7.4 102.653 8 101.133 8H98.443V0.779999ZM99.943 3.73H100.743C101.173 3.73 101.403 3.63 101.553 3.47C101.723 3.29 101.753 3.11 101.753 2.76C101.753 1.95 101.183 1.89 100.593 1.89H99.943V3.73ZM99.943 4.84V6.89H100.553C101.383 6.89 101.833 6.76 101.833 5.85C101.833 5.12 101.543 4.84 100.693 4.84H99.943ZM109.466 4.34C109.466 6.51 109.396 8.13 106.926 8.13C104.616 8.13 104.456 6.43 104.456 4.3C104.456 2.19 104.696 0.589999 106.946 0.589999C109.356 0.589999 109.466 2.11 109.466 4.34ZM105.996 3.9V4.51C105.996 6.19 106.086 7.06 106.946 7.06C107.896 7.06 107.926 6.2 107.926 4.23V3.54C107.926 2.09 107.636 1.67 106.956 1.67C106.176 1.67 105.996 2.3 105.996 3.9ZM110.67 0.779999H112.7L114.63 5.78V0.779999H116.03V8H114.05L112.07 2.72V8H110.67V0.779999ZM118.896 0.779999H120.446L121.396 5.85L122.546 0.779999H124.326L125.416 5.85L126.326 0.779999H127.806L126.206 8H124.536L123.396 2.72L122.136 8H120.496L118.896 0.779999ZM128.473 0.779999H129.993V3.64H131.703V0.779999H133.223V8H131.703V4.82H129.993V8H128.473V0.779999ZM134.536 0.779999H136.046V8H134.536V0.779999ZM141.719 2.58V2.83H140.239V2.66C140.239 2.04 139.989 1.72 139.509 1.72C139.069 1.72 138.779 2.04 138.779 2.52C138.779 2.82 138.919 3.09 139.239 3.29L140.699 4.22C141.589 4.78 141.809 5.26 141.809 6.05C141.809 7.44 141.009 8.13 139.329 8.13C137.559 8.13 137.139 7.16 137.139 6.22V5.77H138.669V5.96C138.669 6.68 138.879 7.04 139.489 7.04C139.999 7.04 140.289 6.75 140.289 6.24C140.289 5.65 139.909 5.47 139.499 5.22L138.599 4.67C137.669 4.1 137.239 3.65 137.239 2.58C137.239 1.25 138.229 0.66 139.629 0.66C141.639 0.66 141.719 1.92 141.719 2.58ZM142.786 0.779999H144.306V3.82L146.086 0.779999H147.746L145.726 4.02L147.746 8H146.046L144.306 4.35V8H142.786V0.779999ZM148.433 0.779999H152.373V1.89H149.943V3.67H152.183V4.78H149.943V6.87H152.453V8H148.433V0.779999ZM152.873 0.779999H154.523L155.603 3.83L156.753 0.779999H158.293L156.283 5.35V8H154.753V5.35L152.873 0.779999Z" fill="white" data-color-group="0"/></svg>