<svg enable-background="new 0 0 60 60" viewBox="0 0 60 60" xmlns="http://www.w3.org/2000/svg" xmlns:xlink="http://www.w3.org/1999/xlink"><linearGradient id="a" gradientTransform="matrix(1 0 0 -1 0 62)" gradientUnits="userSpaceOnUse" x1="16.6685" x2="43.2282" y1="32.4633" y2="32.4633"><stop offset="0" stop-color="#00ce7c"/><stop offset=".9984" stop-color="#4ac1e0"/></linearGradient><circle cx="30" cy="30" fill="#1a1a1a" r="30"/><path d="m38 16.3h-8.1c-2.9 0-5.2 2.3-5.2 5.2v9.5.1c-.1 0-.1 0-.2 0h-3.8c-2.2 0-4 1.8-4 4v3.6c0 2.2 1.8 4 4 4h3.6c2.2 0 4-1.8 4-4v-3.7-.1h.2 9.5c2.9 0 5.2-2.3 5.2-5.2v-8.1c0-2.9-2.3-5.3-5.2-5.3zm1.6 5.3v8.1c0 .9-.7 1.6-1.6 1.6h-9.4c-.1 0-.2 0-.3 0 0-.1 0-.2 0-.2v-9.5c0-.9.7-1.6 1.6-1.6h8.1c.9 0 1.6.7 1.6 1.6zm-14.9 13.1v.4 3.6c0 .2-.2.3-.3.3h-3.6c-.2 0-.3-.2-.3-.3v-3.6c0-.2.2-.3.3-.3h3.6c-.1-.1.1-.1.3-.1z" fill="url(#a)"/></svg>