<svg viewBox="0 0 60 32" fill="none" xmlns="http://www.w3.org/2000/svg">
<path d="M8.09549 29.9031C8.26933 29.9683 8.4649 29.9683 8.6822 29.9139C8.8995 29.8596 9.10593 29.751 9.29063 29.588C9.47534 29.425 9.61658 29.2403 9.72523 29.0122C9.83388 28.784 9.89907 28.545 9.90993 28.2951C9.9208 28.0343 9.87734 27.8279 9.77955 27.654C9.68177 27.4802 9.55139 27.3716 9.37755 27.3064C9.20371 27.2412 9.00814 27.2412 8.79085 27.2955C8.57355 27.3498 8.36712 27.4585 8.19328 27.6214C8.00857 27.7844 7.86733 27.9691 7.75868 28.1973C7.65003 28.4254 7.58484 28.6645 7.57398 28.9144C7.56311 29.1751 7.60657 29.3816 7.70436 29.5554C7.79128 29.7184 7.92165 29.8379 8.09549 29.9031ZM8.2802 28.3711C8.33452 28.2516 8.39971 28.1647 8.48663 28.0778C8.57355 28.0017 8.66047 27.9474 8.76912 27.9148C8.8669 27.8931 8.96468 27.8931 9.04074 27.9257C9.11679 27.9583 9.18198 28.0234 9.22544 28.1104C9.2689 28.1973 9.29063 28.3059 9.27977 28.4472C9.2689 28.5776 9.24717 28.7079 9.19285 28.8166C9.13852 28.9361 9.07333 29.023 8.98641 29.1099C8.89949 29.186 8.81258 29.2403 8.70393 29.2729C8.60614 29.2946 8.50836 29.2946 8.4323 29.262C8.35625 29.2295 8.29106 29.1643 8.2476 29.0773C8.20414 28.9904 8.18241 28.8818 8.19328 28.7405C8.19328 28.6102 8.22587 28.4906 8.2802 28.3711ZM11.0725 26.774L11.0616 27.0456C11.1377 26.9152 11.2463 26.8066 11.355 26.7197C11.4745 26.6219 11.6049 26.5567 11.7352 26.5241C11.8873 26.4806 12.0177 26.4915 12.1372 26.5458C12.2459 26.6001 12.3328 26.6871 12.398 26.8174C12.4632 26.9478 12.4849 27.1108 12.474 27.3064L12.4089 28.86L11.8113 29.0122L11.8656 27.6106C11.8765 27.4367 11.8439 27.3064 11.7678 27.2303C11.6918 27.1543 11.594 27.1325 11.4636 27.1651C11.3767 27.1868 11.3006 27.2303 11.2354 27.2955C11.1703 27.3607 11.1159 27.4259 11.0833 27.5128C11.0507 27.5997 11.029 27.6866 11.0182 27.7844L10.9638 29.2403L10.3663 29.3924L10.464 26.9261L11.0725 26.774ZM16.2659 27.8496L16.3637 25.3833L15.7661 25.5354L15.7552 25.8396C15.6792 25.7418 15.5814 25.6766 15.4619 25.644C15.3424 25.6114 15.212 25.6114 15.0708 25.644C14.8752 25.6984 14.7014 25.7961 14.5492 25.9482C14.3971 26.1004 14.2776 26.2851 14.1798 26.5024C14.0821 26.7197 14.0386 26.9587 14.0277 27.1977C14.0169 27.4476 14.0495 27.6649 14.1364 27.8387C14.2124 28.0126 14.3319 28.143 14.4732 28.2081C14.6144 28.2842 14.7883 28.2951 14.9621 28.2516C15.1034 28.219 15.2337 28.143 15.3532 28.0452C15.4728 27.9474 15.5814 27.817 15.6792 27.6649L15.6683 27.9908L16.2659 27.8496ZM15.6466 27.1434C15.5923 27.2629 15.5271 27.3498 15.451 27.4367C15.3641 27.5128 15.2772 27.5671 15.1685 27.5997C15.0599 27.6214 14.973 27.6214 14.8969 27.5889C14.8209 27.5563 14.7557 27.4911 14.7122 27.3933C14.6688 27.3064 14.647 27.1868 14.6579 27.0565C14.6579 26.9261 14.6905 26.8066 14.7448 26.6871C14.7991 26.5675 14.8643 26.4698 14.9404 26.3937C15.0273 26.3177 15.1142 26.2633 15.2229 26.2307C15.3315 26.1981 15.4184 26.209 15.4945 26.2416C15.5705 26.2742 15.6357 26.3394 15.6683 26.4372C15.7118 26.5241 15.7335 26.6436 15.7227 26.774C15.7227 26.9044 15.7009 27.0347 15.6466 27.1434ZM22.8066 24.8509C23.176 24.5467 23.7084 23.9491 23.741 23.3189C23.7735 22.4606 23.0673 21.9934 22.1764 22.2325L20.4163 22.7105C20.3294 22.7322 20.2642 22.8192 20.2642 22.9061L20.0469 28.3277C20.0469 28.4146 20.1012 28.4689 20.1881 28.4472L22.0678 27.9474C22.9695 27.7084 23.7409 26.8392 23.7844 25.9265C23.7953 25.166 23.1977 24.9269 22.8066 24.8509ZM21.3941 23.6123L21.9808 23.4493C22.2633 23.3733 22.5024 23.5362 22.4915 23.8622C22.4806 24.1881 22.2199 24.5141 21.9374 24.5901L21.3507 24.7531L21.3941 23.6123ZM21.9482 26.8066L21.2638 26.9913L21.3072 25.8179L21.9156 25.6549C22.209 25.5788 22.5241 25.731 22.5132 26.0569C22.5024 26.3937 22.2416 26.7305 21.9482 26.8066ZM30.1187 20.2659L29.9774 23.6449C29.9231 24.8944 28.9126 26.1764 27.7175 26.5024C26.5332 26.8174 25.6097 26.046 25.664 24.8074L25.8053 21.4284C25.8053 21.3415 25.8813 21.2546 25.9574 21.2329L26.8918 20.983C26.9787 20.9613 27.033 21.0156 27.033 21.1025L26.9026 24.4163C26.8809 24.9921 27.2503 25.3398 27.7936 25.1986C28.3368 25.0573 28.7605 24.4815 28.7823 23.9165L28.9126 20.6027C28.9126 20.5158 28.9778 20.4289 29.0648 20.4072L29.9991 20.1573C30.0535 20.1247 30.1187 20.179 30.1187 20.2659ZM34.3125 18.9838L32.4655 19.4836C32.3894 19.5054 32.3242 19.5923 32.3242 19.6792L32.1069 25.1008C32.1069 25.1877 32.1613 25.242 32.2373 25.2203L34.0843 24.7205C35.5511 24.3294 36.8006 22.7214 36.8549 21.1351C36.9201 19.5597 35.7793 18.5927 34.3125 18.9838ZM34.0517 23.5254L33.3238 23.7209L33.4542 20.4072L34.1821 20.2116C35.0405 19.9834 35.6272 20.5484 35.5946 21.4719C35.562 22.3954 34.9101 23.2972 34.0517 23.5254ZM43.0805 17.3215C43.1457 17.365 43.1457 17.4519 43.0913 17.5388L42.4612 18.3863C42.396 18.4623 42.3199 18.4841 42.2547 18.4515C41.9831 18.245 41.6463 18.2233 41.2769 18.3211C40.4512 18.5384 39.7558 19.4728 39.7124 20.3746C39.6798 21.2655 40.3208 21.8196 41.1465 21.6023C41.3638 21.548 41.592 21.4502 41.831 21.2872L41.8527 20.8092L41.3747 20.9395C41.2878 20.9613 41.2334 20.9178 41.2334 20.8309L41.266 20.016C41.266 19.9291 41.3312 19.8422 41.4181 19.8204L42.9392 19.4076C43.0153 19.3858 43.0696 19.4402 43.0696 19.5271L42.9827 21.7218C42.9827 21.7653 42.9501 21.8413 42.9175 21.8739C42.9175 21.8739 42.1135 22.6127 41.0161 22.9061C39.5059 23.3081 38.3542 22.3411 38.4194 20.7005C38.4846 19.0599 39.7558 17.4302 41.2552 17.0282C41.8962 16.8761 42.5807 16.9738 43.0805 17.3215ZM48.6976 15.2898L48.665 16.1807C48.665 16.2676 48.5998 16.3545 48.5129 16.3763L46.416 16.9412L46.3725 17.9517L48.1001 17.4845C48.1761 17.4628 48.2413 17.5171 48.2413 17.604L48.2087 18.4949C48.2087 18.5818 48.1327 18.6688 48.0566 18.6905L46.3291 19.1577L46.2856 20.2659L48.3825 19.7009C48.4695 19.6792 48.5238 19.7335 48.5238 19.8204L48.4912 20.7114C48.4912 20.7983 48.426 20.8852 48.3391 20.9069L45.1991 21.7435C45.1122 21.7653 45.0579 21.7109 45.0579 21.624L45.2752 16.2024C45.2752 16.1155 45.3404 16.0286 45.4273 16.0069L48.5673 15.1703C48.6433 15.1485 48.6976 15.2029 48.6976 15.2898ZM53.8693 13.8991L53.8367 14.79C53.8367 14.8769 53.7715 14.9638 53.6846 14.9856L52.5981 15.2789L52.4243 19.6466C52.4243 19.7335 52.3482 19.8204 52.2722 19.8422L51.3595 20.0812C51.2835 20.1029 51.2183 20.0486 51.2183 19.9617L51.3921 15.594L50.3056 15.8873C50.2187 15.9091 50.1644 15.8548 50.1644 15.7678L50.197 14.8769C50.197 14.79 50.2622 14.7031 50.3491 14.6813L53.7172 13.7796C53.815 13.7578 53.8802 13.8122 53.8693 13.8991ZM54.4886 13.5731L55.1188 13.3993L55.1079 13.5623L54.8798 13.6275L54.8472 14.4315L54.6733 14.4749L54.7059 13.6709L54.4778 13.7361L54.4886 13.5731ZM56.1618 13.1277L56.2161 14.0729L56.0423 14.1164L56.0097 13.5079L55.7816 14.1598L55.6729 14.1924L55.4882 13.6492L55.4121 14.2902L55.2383 14.3337L55.3687 13.345L55.5534 13.2906L55.7381 13.8339L55.9771 13.1711L56.1618 13.1277ZM17.3198 28.86C17.3633 29.0339 17.2655 29.2077 17.0916 29.262L6.86776 31.9891C6.83516 32 6.81343 32 6.78084 32C6.6396 32 6.50922 31.9022 6.46576 31.761C6.4223 31.5871 6.52008 31.4133 6.69392 31.359L16.9178 28.6319C17.0916 28.5884 17.2655 28.6862 17.3198 28.86ZM17.4393 23.8079C17.4828 23.9817 17.385 24.1555 17.2111 24.2099L6.98727 26.937C6.95468 26.9478 6.93295 26.9478 6.90035 26.9478C6.75911 26.9478 6.62873 26.85 6.58527 26.7088C6.54181 26.535 6.6396 26.3611 6.81343 26.3068L17.0373 23.5797C17.2111 23.5254 17.385 23.634 17.4393 23.8079ZM48.1978 12.6931C48.2522 12.6931 48.3065 12.6931 48.3608 12.6931C49.6646 12.6931 51.001 11.8565 51.5334 10.7591C51.6746 10.4658 51.7507 9.93338 51.4682 9.79214C51.1857 9.6509 50.9684 9.84646 50.7837 10.1072C50.273 10.8569 49.3061 11.4327 48.3391 11.3784C47.7958 11.3458 47.4482 11.0525 47.2526 10.4766C47.2417 10.444 47.2309 10.4114 47.22 10.3788C48.3608 10.2811 49.8167 9.96598 50.6099 8.95554C51.2509 8.14067 51.3378 7.09764 50.9249 6.31537C50.5664 5.64175 49.871 5.29407 49.0453 5.35926C48.1218 5.43531 47.1765 6.07634 46.579 7.01072C45.8619 8.12981 45.6011 9.59657 46.0683 10.9655C46.3943 11.9869 47.1765 12.6279 48.1978 12.6931ZM47.4808 7.68435C47.948 6.96726 48.5564 6.65218 49.0236 6.60872C49.393 6.57613 49.6646 6.70651 49.8059 6.96727C49.9906 7.32581 49.958 7.83646 49.6212 8.27105C49.1757 8.84689 47.9914 9.22716 47.0462 9.32495C47.0136 8.73824 47.1548 8.18413 47.4808 7.68435ZM11.7244 22.3846C11.8004 22.3954 11.8873 22.3954 11.9634 22.3954C12.6805 22.3954 13.4519 21.7435 14.0603 20.9178C14.1364 21.1134 14.2559 21.2981 14.4297 21.4284C14.81 21.7218 15.3207 21.6349 15.7227 21.4284C16.1138 21.2329 16.5918 20.8417 16.6679 20.3854C16.6788 20.3094 16.6788 20.2224 16.6679 20.1464C16.6353 19.9943 16.5593 19.8422 16.418 19.777C16.2442 19.7009 16.0595 19.777 15.9508 19.9182C15.8965 19.9726 15.8313 20.0377 15.7661 20.0812C15.4076 20.3528 15.1577 20.2007 15.1685 19.7118C15.1685 19.6683 15.5597 14.9856 15.5597 14.9856C15.5923 14.6596 15.3424 14.4097 15.0273 14.4423C14.7014 14.464 14.4189 14.7574 14.3971 15.0833L14.3754 15.3658C14.0386 15.0833 13.6475 14.8878 13.1803 14.8878C11.757 14.8878 10.4314 16.5175 10.1164 18.5492C9.90993 19.8748 10.0403 20.9613 10.5401 21.6349C10.8552 22.0586 11.2029 22.3194 11.7244 22.3846ZM11.268 18.734C11.5179 17.1477 12.4415 16.159 13.1585 16.159C13.4193 16.159 13.604 16.235 13.7561 16.4197C14.0929 16.8109 14.2124 17.6257 14.0712 18.6144C13.8213 20.3202 12.7239 21.2003 12.0395 21.1025C11.833 21.0699 11.67 20.983 11.5397 20.8092C11.3658 20.5701 11.0616 20.0595 11.268 18.734ZM7.61744 22.9061L8.44317 13.0299C8.47576 12.7039 8.75825 12.4106 9.07333 12.378C9.39928 12.3454 9.63831 12.5844 9.60571 12.9212L8.77998 22.7974C8.75825 23.1125 8.49749 23.3841 8.19328 23.4385C8.17155 23.4385 8.16068 23.4385 8.13895 23.4493C7.83473 23.4711 7.59571 23.232 7.61744 22.9061ZM44.6342 13.4102C44.1126 13.9425 43.3738 14.2685 42.6133 14.3228C42.4069 14.3337 42.1896 14.3337 41.9831 14.3119C41.3638 14.2359 40.8749 13.9317 40.6141 13.4536C40.3099 12.9104 40.3643 12.2041 40.8314 11.7044C40.8314 11.7044 40.8314 11.7044 40.8423 11.6935C41.0053 11.5305 41.2117 11.4001 41.4399 11.3676C41.6354 11.3458 41.8527 11.3893 41.9505 11.5631C42.0809 11.8239 41.9179 11.9325 41.7332 12.1933C41.6137 12.3563 41.5811 12.5736 41.6354 12.7583C41.7115 12.9864 41.9505 13.1494 42.1787 13.2037C42.6893 13.3124 43.3086 13.1385 43.6889 12.7474C43.9388 12.4975 44.1235 12.0846 44.08 11.7696C43.9931 11.1828 43.4933 10.9112 42.5372 10.531C42.396 10.4766 42.2439 10.4114 42.1026 10.3571C41.5485 10.129 41.1683 9.69436 41.0379 9.14025C40.788 8.05375 41.5377 7.1411 42.4069 6.80429C42.9284 6.60872 43.5259 6.59786 43.9714 6.78256C44.2756 6.91294 44.5472 7.13024 44.7211 7.41273C44.8841 7.68435 44.9818 8.07548 44.8297 8.40143C44.7754 8.53181 44.6776 8.64046 44.5581 8.71651C44.4169 8.80343 44.243 8.83603 44.0909 8.77084C43.9279 8.69478 43.9279 8.54268 43.9062 8.3797C43.8736 8.21673 43.8084 8.08635 43.6998 7.99943C43.6346 7.94511 43.5694 7.90165 43.4716 7.87992C43.2543 7.81473 42.9936 7.81473 42.7654 7.90165C42.2113 8.11894 42.1026 8.53181 42.1678 8.8143C42.2004 8.95554 42.2982 9.20543 42.5916 9.31408C42.7328 9.36841 42.874 9.4336 43.0153 9.48792C44.0475 9.90079 45.1122 10.2811 45.286 11.5305C45.3838 12.2259 45.1557 12.8886 44.6342 13.4102ZM39.2452 15.1703C39.6363 14.9747 40.1144 14.5836 40.1904 14.1272C40.2013 14.0512 40.2013 13.9643 40.1904 13.8882C40.1578 13.7361 40.0818 13.584 39.9405 13.5188C39.7667 13.4427 39.582 13.5188 39.4733 13.66C39.419 13.7144 39.3538 13.7796 39.2886 13.823C38.9301 14.0946 38.6802 13.9425 38.6911 13.4536C38.6911 13.4102 39.0822 8.72738 39.0822 8.72738C39.1148 8.40143 38.8649 8.15154 38.5498 8.18413C38.2239 8.20586 37.9414 8.49922 37.9196 8.82516L37.8979 9.10765C37.5611 8.82516 37.17 8.62959 36.7028 8.62959C35.2795 8.62959 33.954 10.2593 33.6389 12.2911C33.4324 13.6166 33.5628 14.7031 34.0626 15.3767C34.3777 15.8004 34.7254 16.0612 35.2469 16.1264C35.3229 16.1372 35.4099 16.1372 35.4859 16.1372C36.203 16.1372 36.9744 15.4853 37.5828 14.6596C37.6589 14.8552 37.7784 15.0399 37.9522 15.1703C38.3325 15.4636 38.8432 15.3767 39.2452 15.1703ZM37.5937 12.3454C37.3438 14.0512 36.2465 14.9312 35.562 14.8335C35.3555 14.8009 35.1926 14.7139 35.0622 14.5401C34.8883 14.3011 34.5841 13.8013 34.7906 12.4649C35.0405 10.8786 35.964 9.88992 36.681 9.88992C36.9418 9.88992 37.1265 9.96598 37.2786 10.1507C37.6154 10.5418 37.7349 11.3567 37.5937 12.3454ZM59.2366 8.10808C59.2257 8.07549 59.2149 8.05375 59.1931 8.03203C59.1171 7.92338 58.965 7.85819 58.8346 7.89078C58.563 7.95597 58.4109 8.29278 58.2588 8.49922C58.1175 8.68392 57.9437 8.87949 57.7264 8.98814C57.4547 9.10765 57.2809 8.93381 57.2918 8.52095C57.2918 8.47749 57.3026 8.36884 57.3026 8.32538L57.9545 0.546107C57.9871 0.22016 57.7372 -0.0297331 57.4221 0.00286165C57.0962 0.0245915 56.8137 0.317944 56.792 0.643891L56.4986 4.16412C56.1618 3.88163 55.7707 3.68606 55.3035 3.68606C53.8802 3.68606 52.5547 5.3158 52.2396 7.34754C52.0332 8.67305 52.1635 9.75954 52.6633 10.4332C52.9784 10.8569 53.3261 11.1177 53.8476 11.1828C53.9236 11.1937 54.0106 11.1937 54.0866 11.1937C54.8037 11.1937 55.5751 10.5418 56.1835 9.71608C56.2596 9.91165 56.3791 10.0964 56.553 10.2267C56.7594 10.3788 57.031 10.4332 57.2809 10.4006C57.7916 10.3354 58.2588 10.0203 58.5847 9.62917C58.7259 9.45533 58.8672 9.28149 58.9867 9.09679C59.1062 8.91208 59.2257 8.69478 59.2692 8.47749C59.2692 8.46662 59.2692 8.45576 59.28 8.44489C59.28 8.32538 59.2801 8.20586 59.2366 8.10808ZM56.1944 7.391C55.9445 9.09679 54.8472 9.97684 54.1627 9.87906C53.9562 9.84646 53.7933 9.75955 53.6629 9.58571C53.4891 9.34668 53.1848 8.84689 53.3913 7.51051C53.6412 5.92423 54.5647 4.93553 55.2818 4.93553C55.5425 4.93553 55.7272 5.01158 55.8793 5.19629C56.2161 5.58742 56.3357 6.41315 56.1944 7.391ZM32.2482 10.77C31.8896 10.3571 31.4985 10.1941 30.9118 10.2267C30.1186 10.2702 29.3255 10.8786 28.7171 11.7478C28.7605 11.2698 28.804 10.8352 28.8583 10.4114C30.5424 9.77041 31.9548 8.8143 32.9435 7.59743C34.1278 6.1524 34.6167 4.46834 34.3451 2.72995C34.3016 2.45833 34.0735 2.24103 33.791 2.23017C33.5954 2.2193 29.1517 2.11065 27.8044 9.53138C27.0982 9.75955 26.3377 9.92252 25.5337 10.0312L25.7075 7.91251C25.7401 7.58656 25.4902 7.34754 25.1751 7.36927C24.8492 7.40186 24.5667 7.69521 24.545 8.02116L24.3711 10.1398C24.2951 10.1398 24.219 10.1507 24.143 10.1507C23.1217 10.1941 22.1112 10.1181 21.1442 10.042C19.6883 9.93338 18.3085 9.82473 17.1894 10.1833C16.9178 10.2702 16.6462 10.4006 16.418 10.5853C15.7552 11.0959 15.3858 11.976 15.6683 12.7909C15.6683 12.7909 15.6683 12.7909 15.6683 12.8017C15.7878 13.1277 16.0703 13.4427 16.4506 13.3232C16.6896 13.2472 16.7331 13.0516 16.7005 12.8234C16.6679 12.5844 16.657 12.3454 16.7114 12.1172C16.7983 11.7152 17.0808 11.4219 17.4828 11.3024C18.3846 11.0199 19.7101 11.1177 21.0465 11.2263C22.0569 11.3024 23.0999 11.3784 24.1864 11.335C24.2081 11.335 24.2407 11.335 24.2625 11.335L23.9257 15.3441C23.9257 15.3441 23.9257 15.355 23.9257 15.3658L23.9039 15.6157C23.8931 15.7026 23.8822 15.8004 23.8713 15.8982C23.7953 16.4306 23.6106 17.2237 23.1108 17.8104C22.4154 18.6253 22.0352 18.3971 22.0352 18.3971C21.8505 18.2776 21.8613 18.0386 21.8831 17.8104C21.9374 17.1151 22.0026 16.4523 22.0569 15.7678C22.1112 15.1811 22.1764 14.5944 22.0678 14.0186C21.9156 13.258 21.5028 12.8995 20.8509 12.9104C20.1229 12.9104 19.5906 13.3015 19.0582 14.0077C18.9713 14.1272 18.8191 14.3445 18.6562 14.6379L18.6996 14.1816C18.7322 13.8556 18.4823 13.6166 18.1673 13.6383C17.8413 13.6709 17.5588 13.9643 17.5371 14.2902L17.0156 20.4072C16.983 20.7331 17.2329 20.9721 17.548 20.9504C17.5697 20.9504 17.5806 20.9504 17.6023 20.9395C17.9065 20.8852 18.1564 20.6027 18.189 20.2985L18.3846 17.9734C18.4606 17.0608 18.6562 16.1807 19.0908 15.3767C19.395 14.8226 19.8187 14.3337 20.3402 14.3011C20.6336 14.2793 20.8292 14.4206 20.9161 14.7465C20.9921 15.0508 20.9704 15.355 20.9378 15.6809C20.8509 16.5718 20.7314 17.4302 20.7096 18.3102C20.6988 18.7122 20.7314 19.0816 20.9161 19.3967C21.1768 19.8422 21.7418 19.8965 22.209 19.7661C22.2416 19.7553 22.2633 19.7444 22.2959 19.7335C22.3068 19.7335 22.3068 19.7335 22.3176 19.7227C22.3394 19.7227 22.3502 19.7118 22.372 19.7009C22.3937 19.6901 22.4154 19.6901 22.4372 19.6792C23.0673 19.4293 23.5237 18.8535 23.8496 18.2233C23.8713 18.2885 23.8822 18.3211 23.8822 18.3211C23.9582 18.5167 24.0778 18.7014 24.2516 18.8317C24.458 18.9838 24.7297 19.0382 24.9795 19.0056C25.1534 18.9838 25.3272 18.9187 25.4902 18.8426C25.7184 18.734 25.9248 18.5927 26.0986 18.408C26.2616 18.245 26.4354 18.0169 26.4789 17.7778C26.4898 17.7018 26.4898 17.6149 26.4789 17.5388C26.4463 17.3867 26.3703 17.2346 26.229 17.1694C26.0552 17.0934 25.8705 17.1694 25.7618 17.3107C25.7075 17.365 25.6423 17.4302 25.5771 17.4736C25.2186 17.7452 24.9687 17.5931 24.9795 17.1042C24.9795 17.0608 24.9904 16.9521 24.9904 16.9087L25.4685 11.248C26.229 11.1611 26.957 11.0199 27.6523 10.8243C27.598 11.3567 27.5545 11.9651 27.5111 12.5953L27.0765 17.7235C27.0439 18.0495 27.2938 18.2885 27.6089 18.2668C27.6306 18.2668 27.6415 18.2668 27.6632 18.2559C27.9674 18.2016 28.2173 17.9191 28.2499 17.6149L28.2607 17.4736C28.5432 17.6692 28.88 17.7778 29.2277 17.7887C29.2495 17.7887 29.2712 17.7887 29.2929 17.7887C30.6402 17.7887 32.3677 16.2133 32.6936 13.9751C32.8783 12.5953 32.8023 11.411 32.2482 10.77ZM33.2586 3.46877C33.3021 4.67477 32.8892 5.83731 32.0526 6.85862C31.4442 7.59743 30.6619 8.21673 29.7384 8.72738C30.2925 8.09721 31.1617 6.99986 31.7701 5.72867C31.781 5.69607 31.7701 5.66348 31.7484 5.64175C31.7158 5.62002 31.6832 5.63088 31.6615 5.65261C31.6506 5.67434 30.412 7.27148 29.2929 8.35797C30.3359 4.56612 32.3242 3.6752 33.2586 3.46877ZM31.5202 13.8013C31.2269 15.5723 30.1295 16.4632 29.4016 16.4632C29.3907 16.4632 29.3798 16.4632 29.369 16.4632C29.1517 16.4523 28.9344 16.3654 28.7931 16.2024C28.4889 15.833 28.3694 15.2029 28.5324 14.3011C28.8909 12.378 29.9339 11.5197 30.6076 11.5197C30.9335 11.5197 31.1074 11.6609 31.1943 11.7478C31.542 12.1281 31.6615 12.8126 31.5202 13.8013ZM6.44403 17.3758C6.07462 16.9412 5.66175 16.7783 5.05332 16.8109C4.21672 16.8543 3.38012 17.5062 2.7391 18.4406L2.77169 18.0929C2.80428 17.7561 2.55439 17.5062 2.21758 17.5388C1.88077 17.5714 1.58742 17.8756 1.55482 18.2124L0.696493 28.458C0.663899 28.7949 0.913792 29.0447 1.2506 29.0122C1.27233 29.0122 1.2832 29.0122 1.30493 29.0013C1.62001 28.947 1.88077 28.6536 1.91336 28.3385L2.25017 24.3294C2.55439 24.5358 2.90207 24.6553 3.28234 24.6771C3.30407 24.6771 3.3258 24.6771 3.35839 24.6771C4.75997 24.6771 6.56354 23.0365 6.90035 20.7005C7.09592 19.2881 7.01987 18.0495 6.44403 17.3758ZM5.67262 20.5375C5.3684 22.3846 4.21672 23.3081 3.46704 23.3081C3.45618 23.3081 3.44531 23.3081 3.43445 23.3081C3.21715 23.2972 2.97812 23.1994 2.83688 23.0365C2.5218 22.6562 2.39142 21.9934 2.56526 21.059C2.93466 19.049 4.02115 18.1581 4.72737 18.1581C5.06418 18.1581 5.24889 18.2994 5.33581 18.3971C5.69435 18.7883 5.82473 19.5054 5.67262 20.5375Z" fill="#2A7E39"/>
</svg>
